<?xml version="1.0" standalone="no"?>
<!DOCTYPE svg PUBLIC "-//W3C//DTD SVG 1.1//EN" "http://www.w3.org/Graphics/SVG/1.1/DTD/svg11.dtd" >
<svg>
<metadata>
Created by FontForge 20090622 at Fri Oct 19 09:08:47 2018
 By deploy user
Copyright \(c\) 2014 by Yellow Design Studio. All rights reserved.
</metadata>
<defs>
<font id="BeauLuloClean-OneBold" horiz-adv-x="1059" >
  <font-face 
    font-family="One"
    font-weight="400"
    font-stretch="normal"
    units-per-em="1000"
    panose-1="2 1 8 4 2 2 0 0 0 3"
    ascent="800"
    descent="-200"
    x-height="780"
    cap-height="780"
    bbox="-578 -315 1520 1175"
    underline-thickness="50"
    underline-position="-50"
    unicode-range="U+0020-U+F8FF"
  />
<missing-glyph horiz-adv-x="305" 
 />
    <glyph glyph-name=".notdef" horiz-adv-x="305" 
 />
    <glyph glyph-name=".null" horiz-adv-x="0" 
 />
    <glyph glyph-name="nonmarkingreturn" horiz-adv-x="333" 
 />
    <glyph glyph-name="space" unicode=" " horiz-adv-x="511" 
 />
    <glyph glyph-name="exclam" unicode="!" horiz-adv-x="553" 
d="M273 780l-45 -496h-133l-45 496h223zM35 109q0 52 37 89t89 37t89 -37t37 -89t-37 -89t-89 -37t-89 37t-37 89z" />
    <glyph glyph-name="quotedbl" unicode="&#x22;" horiz-adv-x="747" 
d="M75 432l-30 348h194l-30 -348h-134zM308 432l-30 348h194l-30 -348h-134z" />
    <glyph glyph-name="numbersign" unicode="#" horiz-adv-x="1016" 
d="M88 618h128l29 162h165l-29 -162h102l29 162h165l-29 -162h99v-172h-129l-19 -113h99v-171h-129l-28 -162h-165l28 162h-102l-28 -162h-165l28 162h-98v171h128l19 113h-98v172zM332 333h102l19 113h-102z" />
    <glyph glyph-name="dollar" unicode="$" horiz-adv-x="831" 
d="M234 281v-1q0 -24 17.5 -42.5t55.5 -18.5q48 0 48 28q0 9 -16 21t-65 35q-2 1 -26 12t-30.5 14.5t-29.5 15t-31.5 18t-28 19.5t-28 23l-22 25.5t-19 30t-10.5 32.5t-5 37q0 64 45.5 112.5t120.5 67.5v95h178v-97q76 -22 121 -75t45 -128v-6h-195v1q0 24 -15.5 42.5
t-49.5 18.5q-18 0 -28.5 -6t-12.5 -11t-2 -10q0 -23 75 -53q101 -40 147 -74q89 -65 89 -155q0 -68 -47.5 -117t-126.5 -67v-93h-178v97q-79 22 -125 74.5t-46 128.5v6h195z" />
    <glyph glyph-name="percent" unicode="%" horiz-adv-x="1321" 
d="M35 576q0 91 64 155t155 64q90 0 154.5 -64t64.5 -155q0 -90 -64.5 -154t-154.5 -64q-91 0 -155 63.5t-64 154.5zM158 0l562 780h217l-562 -780h-217zM202 576q0 -22 15 -37t37 -15t37.5 15t15.5 37t-15.5 37.5t-37.5 15.5t-37 -15.5t-15 -37.5zM619 200q0 91 64 155
t155 64q90 0 154.5 -64t64.5 -155q0 -90 -64.5 -154t-154.5 -64q-91 0 -155 63.5t-64 154.5zM786 200q0 -22 15 -37t37 -15t37.5 15t15.5 37t-15.5 37.5t-37.5 15.5t-37 -15.5t-15 -37.5z" />
    <glyph glyph-name="ampersand" unicode="&#x26;" horiz-adv-x="1049" 
d="M570 0l-49 53q-125 -68 -237 -68q-122 0 -191 64.5t-69 155.5q0 70 42 117.5t121 92.5q-61 82 -61 160q0 92 70.5 156t167.5 64q96 0 165 -61.5t69 -148.5q0 -112 -136 -192l84 -91q69 56 117 104l141 -135q-65 -63 -126 -112l147 -159h-255zM312 577q0 -25 42 -70
q67 41 67 74q0 20 -16.5 33t-37.5 13q-22 0 -38.5 -15t-16.5 -35zM288 168q40 0 99 28l-98 106q-66 -42 -66 -82q0 -23 17.5 -37.5t47.5 -14.5z" />
    <glyph glyph-name="quotesingle" unicode="'" horiz-adv-x="514" 
d="M75 432l-30 348h194l-30 -348h-134z" />
    <glyph glyph-name="parenleft" unicode="(" horiz-adv-x="664" 
d="M423 853q-84 -66 -140 -187t-56 -276q0 -154 56 -275t140 -188l-123 -152q-118 97 -197 256t-79 359t78.5 359t197.5 257z" />
    <glyph glyph-name="parenright" unicode=")" horiz-adv-x="664" 
d="M11 -72q84 66 140 187t56 276q0 154 -56 275t-140 188l123 152q118 -97 197 -256t79 -359t-78.5 -359t-197.5 -257z" />
    <glyph glyph-name="asterisk" unicode="*" horiz-adv-x="769" 
d="M344 665l99 56l60 -185l-115 -11l83 -75l-157 -114l-47 106l-46 -104l-156 115l87 78l-115 12l61 184l100 -59l-23 112h194z" />
    <glyph glyph-name="plus" unicode="+" horiz-adv-x="778" 
d="M365 596v-140h142v-181h-142v-141h-182v141h-142v181h142v140h182z" />
    <glyph glyph-name="comma" unicode="," horiz-adv-x="553" 
d="M25 -101q54 58 74 96l-14 13q-14 12 -23 23t-18 32.5t-9 45.5q0 52 37 89t89 37t88.5 -37t36.5 -99q0 -106 -183 -276z" />
    <glyph glyph-name="hyphen" unicode="-" horiz-adv-x="647" 
d="M360 232h-303v187h303v-187z" />
    <glyph glyph-name="period" unicode="." horiz-adv-x="550" 
d="M34 109q0 52 37 89t89 37t89 -37t37 -89t-37 -89t-89 -37t-89 37t-37 89z" />
    <glyph glyph-name="slash" unicode="/" horiz-adv-x="1069" 
d="M817 958l-581 -1136h-214l579 1136h216z" />
    <glyph glyph-name="zero" unicode="0" horiz-adv-x="951" 
d="M31 390q0 79 21 151t61 129t103.5 91t142.5 34q104 0 181 -58.5t113.5 -149t36.5 -197.5t-36.5 -197.5t-113.5 -149t-181 -58.5q-79 0 -142.5 33.5t-103.5 90.5t-61 129t-21 152zM230 390q0 -97 36 -154.5t93 -57.5t94 57.5t37 154.5t-37 154t-94 57t-93 -57t-36 -154z
" />
    <glyph glyph-name="one" unicode="1" horiz-adv-x="623" 
d="M31 721l171 59h134v-780h-199v550l-106 -37v208z" />
    <glyph glyph-name="two" unicode="2" horiz-adv-x="878" 
d="M601 0h-565v151l276 255q54 50 73 75t19 54q0 30 -20 48t-55 18q-39 0 -63.5 -23t-24.5 -65v-23h-195v23q0 69 25.5 125t67.5 89t91.5 50.5t101.5 17.5q114 0 194 -71t80 -189q0 -113 -104 -221l-57 -55l-66 -60h222v-199z" />
    <glyph glyph-name="three" unicode="3" horiz-adv-x="856" 
d="M128 226q91 -48 162 -48q98 0 98 63q0 73 -188 73v162q174 0 174 77q0 23 -19.5 41t-53.5 18q-29 0 -52 -13t-23 -45v-4h-189v20q0 103 79.5 164t185.5 61q108 0 189 -60t81 -157q0 -111 -96 -177q118 -61 118 -177q0 -108 -86 -173.5t-211 -65.5q-140 0 -277 77z" />
    <glyph glyph-name="four" unicode="4" horiz-adv-x="898" 
d="M372 0v134h-356v155l274 491h222l-260 -459h120v147h193v-147h76v-187h-76v-134h-193z" />
    <glyph glyph-name="five" unicode="5" horiz-adv-x="882" 
d="M568 579h-291l-9 -76q38 17 100 17q109 0 181.5 -74t72.5 -184q0 -120 -86.5 -198.5t-215.5 -78.5q-99 0 -177.5 48t-125.5 123l170 99q57 -75 132 -75q46 0 73 23.5t27 59.5q0 31 -19 55.5t-60 24.5q-59 0 -117 -58l-169 78l75 417h439v-201z" />
    <glyph glyph-name="six" unicode="6" horiz-adv-x="880" 
d="M530 780l-159 -240q108 -4 179.5 -74t71.5 -182q0 -126 -86 -212.5t-209 -86.5q-126 0 -213.5 86.5t-87.5 207.5q0 90 65 191l198 310h241zM242 345q-21 -28 -21 -58q0 -47 30 -77t74 -30q43 0 72.5 30t29.5 74q0 42 -30 72t-73 30q-46 0 -82 -41z" />
    <glyph glyph-name="seven" unicode="7" horiz-adv-x="812" 
d="M32 780h533v-161l-305 -619h-226l303 580h-305v200z" />
    <glyph glyph-name="eight" unicode="8" horiz-adv-x="908" 
d="M30 231q0 122 103 182q-72 54 -72 153q0 102 81.5 165.5t197.5 63.5q114 0 196 -64t82 -165q0 -97 -74 -153q104 -61 104 -182q0 -108 -90.5 -177t-217.5 -69q-129 0 -219.5 69t-90.5 177zM259 557q0 -30 21.5 -52t59.5 -22t59 22t21 52q0 28 -21.5 49t-58.5 21
q-38 0 -59.5 -21t-21.5 -49zM234 248q0 -35 29 -61.5t77 -26.5q47 0 75.5 26.5t28.5 61.5t-28.5 61.5t-75.5 26.5q-49 0 -77.5 -26t-28.5 -62z" />
    <glyph glyph-name="nine" unicode="9" horiz-adv-x="880" 
d="M120 0l159 240q-108 4 -179.5 74t-71.5 182q0 126 86 212.5t209 86.5q126 0 213.5 -86.5t87.5 -207.5q0 -90 -65 -191l-198 -310h-241zM408 435q21 28 21 58q0 47 -30 77t-74 30q-43 0 -72.5 -30t-29.5 -74q0 -42 30 -72t73 -30q46 0 82 41z" />
    <glyph glyph-name="colon" unicode=":" horiz-adv-x="580" 
d="M49 443q0 52 37 89t89 37t89 -37t37 -89t-37 -89t-89 -37t-89 37t-37 89zM49 109q0 52 37 89t89 37t89 -37t37 -89t-37 -89t-89 -37t-89 37t-37 89z" />
    <glyph glyph-name="semicolon" unicode=";" horiz-adv-x="581" 
d="M48 443q0 52 37 89t89 37t89 -37t37 -89t-37 -89t-89 -37t-89 37t-37 89zM40 -101q54 58 74 96l-14 13q-14 12 -23 23t-18 32.5t-9 45.5q0 52 37 89t89 37t88.5 -37t36.5 -99q0 -106 -183 -276z" />
    <glyph glyph-name="less" unicode="&#x3c;" horiz-adv-x="815" 
d="M37 452l483 227v-212l-248 -101l248 -102v-211l-483 226v173z" />
    <glyph glyph-name="equal" unicode="=" horiz-adv-x="810" 
d="M57 570h466v-182h-466v182zM57 344h466v-181h-466v181z" />
    <glyph glyph-name="greater" unicode="&#x3e;" horiz-adv-x="815" 
d="M548 280l-483 -227v212l248 101l-248 102v211l483 -226v-173z" />
    <glyph glyph-name="question" unicode="?" horiz-adv-x="821" 
d="M184 277v32q0 45 20.5 83.5t41 57t55.5 44.5q25 19 36.5 33t11.5 34q0 18 -13 32.5t-38 14.5q-28 0 -47.5 -19.5t-19.5 -59.5v-9h-195v33q0 59 24.5 106.5t64 76t86.5 44t95 15.5q101 0 173 -63.5t72 -166.5q0 -116 -112 -192l-23.5 -16t-24.5 -17.5t-17.5 -16t-14.5 -21
t-4 -23.5v-2h-171zM145 109q0 52 37 89t89 37t89 -37t37 -89t-37 -89t-89 -37t-89 37t-37 89z" />
    <glyph glyph-name="at" unicode="@" horiz-adv-x="1190" 
d="M276 373q0 89 66.5 153.5t155.5 64.5q79 0 132.5 -54.5t53.5 -133.5q0 -64 -37 -119q15 -16 39 -16q35 0 60 37.5t25 101.5q0 113 -76 191.5t-189 78.5q-129 0 -222.5 -92t-93.5 -220q0 -112 76 -189t189 -77q62 0 107 18l72 -121q-98 -43 -193 -43q-171 0 -287 116.5
t-116 284.5q0 127 66 237t177 173.5t238 63.5q171 0 287 -119t116 -291q0 -133 -71 -214t-168 -81q-94 0 -150 74q-33 -12 -71 -12q-79 0 -132.5 54.5t-53.5 133.5zM425 384q0 -22 14 -37t36 -15q25 0 43 17.5t18 42.5q0 22 -15 37t-37 15q-25 0 -42 -17.5t-17 -42.5z" />
    <glyph glyph-name="A" unicode="A" 
d="M514 780l315 -780h-218l-43 114h-307l-43 -114h-218l316 780h198zM415 524l-86 -229h171z" />
    <glyph glyph-name="B" unicode="B" horiz-adv-x="992" 
d="M60 780h388q122 0 187.5 -59t65.5 -156q0 -112 -95 -164q130 -49 130 -181q0 -98 -68.5 -159t-185.5 -61h-422v780zM260 598v-124h165q74 0 74 62q0 29 -16 45.5t-47 16.5h-176zM260 318v-137h200q74 0 74 70q0 67 -74 67h-200z" />
    <glyph glyph-name="C" unicode="C" horiz-adv-x="1047" 
d="M807 209q-52 -101 -151.5 -162.5t-218.5 -61.5q-169 0 -291.5 119t-122.5 286t122.5 286t291.5 119q119 0 217.5 -61t151.5 -161l-182 -82q-27 50 -77 80.5t-110 30.5q-88 0 -150 -62t-62 -150t62 -150t150 -62q61 0 110.5 30t76.5 81z" />
    <glyph glyph-name="D" unicode="D" horiz-adv-x="1048" 
d="M60 780h362q118 0 203 -54t125.5 -141t40.5 -195q0 -109 -40.5 -196t-125.5 -140.5t-203 -53.5h-362v780zM260 586v-393h147q87 0 134.5 53.5t47.5 143.5t-47.5 143t-134.5 53h-147z" />
    <glyph glyph-name="E" unicode="E" horiz-adv-x="926" 
d="M60 780h599v-194h-399v-112h328v-181h-328v-100h399v-193h-599v780z" />
    <glyph glyph-name="F" unicode="F" horiz-adv-x="895" 
d="M60 780h579v-194h-380v-138h319v-181h-319v-267h-199v780z" />
    <glyph glyph-name="G" unicode="G" horiz-adv-x="1062" 
d="M415 455h376v-455h-157v73q-28 -42 -81.5 -65t-115.5 -23q-170 0 -292 119t-122 286t122 286t292 119q99 0 186 -44t144 -119l-163 -110q-64 80 -167 80q-89 0 -150.5 -62t-61.5 -150t61.5 -150t150.5 -62q106 0 167 89v22h-189v166z" />
    <glyph glyph-name="H" unicode="H" horiz-adv-x="1067" 
d="M777 780v-780h-200v290h-318v-290h-199v780h199v-303h318v303h200z" />
    <glyph glyph-name="I" unicode="I" horiz-adv-x="550" 
d="M260 780v-780h-200v780h200z" />
    <glyph glyph-name="J" unicode="J" horiz-adv-x="895" 
d="M612 780v-491q0 -149 -83.5 -226.5t-213.5 -77.5q-126 0 -212.5 78t-86.5 226v68h200v-65q0 -114 99 -114q48 0 73 24.5t25 89.5v488h199z" />
    <glyph glyph-name="K" unicode="K" horiz-adv-x="998" 
d="M60 780h200v-269l242 269h258l-308 -335l324 -445h-248l-215 294l-53 -59v-235h-200v780z" />
    <glyph glyph-name="L" unicode="L" horiz-adv-x="876" 
d="M60 780h199v-587h374v-193h-573v780z" />
    <glyph glyph-name="M" unicode="M" horiz-adv-x="1203" 
d="M60 0v780h201l225 -493l226 493h201v-780h-199v367l-162 -337h-131l-162 337v-367h-199z" />
    <glyph glyph-name="N" unicode="N" horiz-adv-x="1067" 
d="M60 0v780h170l348 -436v436h199v-780h-169l-348 435v-435h-200z" />
    <glyph glyph-name="O" unicode="O" horiz-adv-x="1104" 
d="M23 390q0 167 122.5 286t291.5 119q171 0 292.5 -119t121.5 -286t-121.5 -286t-292.5 -119q-169 0 -291.5 119t-122.5 286zM225 390q0 -88 62 -150t150 -62q90 0 151 61.5t61 150.5t-61 150.5t-151 61.5q-88 0 -150 -62t-62 -150z" />
    <glyph glyph-name="P" unicode="P" horiz-adv-x="957" 
d="M60 780h344q147 0 226.5 -86.5t79.5 -212.5q0 -131 -79 -217.5t-227 -86.5h-144v-177h-200v780zM260 598v-239h133q115 0 115 121q0 51 -28 84.5t-87 33.5h-133z" />
    <glyph glyph-name="Q" unicode="Q" horiz-adv-x="1105" 
d="M23 390q0 167 122.5 286t291.5 119q171 0 292.5 -119t121.5 -286q0 -109 -55 -201.5t-147 -146.5q62 -43 102 -43q45 0 68 35l151 -122q-39 -54 -99 -80t-119 -26q-54 0 -107.5 23t-91.5 52t-89.5 62.5t-94.5 47.5q-147 23 -246.5 136.5t-99.5 262.5zM225 390
q0 -88 62 -150t150 -62q90 0 151 61.5t61 150.5t-61 150.5t-151 61.5q-88 0 -150 -62t-62 -150z" />
    <glyph glyph-name="R" unicode="R" horiz-adv-x="996" 
d="M441 780q143 0 217.5 -80.5t74.5 -204.5q0 -85 -39 -154.5t-115 -104.5l169 -236h-239l-148 209h-102v-209h-199v780h381zM259 598v-208h171q56 0 83 29t27 74q0 105 -110 105h-171z" />
    <glyph glyph-name="S" unicode="S" horiz-adv-x="929" 
d="M224 234v-5q0 -26 34.5 -48.5t97.5 -22.5q52 0 75.5 14t23.5 34q0 24 -29.5 42t-103.5 43q-47 16 -78.5 28t-75 35.5t-69.5 49t-45 64.5t-19 85q0 110 85 176t220 66q139 0 229 -69t90 -183v-11h-195v7q0 32 -31.5 57.5t-88.5 25.5q-47 0 -71 -15.5t-24 -37.5t27 -37.5
t102 -41.5l51 -18.5t53.5 -22t56.5 -29t49 -36t43.5 -45.5t27 -55t11.5 -67q0 -111 -86 -171.5t-224 -60.5q-145 0 -238 64t-93 176v9h195z" />
    <glyph glyph-name="T" unicode="T" horiz-adv-x="940" 
d="M12 780h686v-194h-243v-586h-200v586h-243v194z" />
    <glyph glyph-name="U" unicode="U" horiz-adv-x="1045" 
d="M766 780v-439q0 -156 -95 -256t-264 -100q-170 0 -264 99.5t-94 256.5v439h200v-427q0 -85 40 -130t118 -45t119 45t41 130v427h199z" />
    <glyph glyph-name="V" unicode="V" 
d="M315 0l-315 780h218l196 -524l197 524h218l-316 -780h-198z" />
    <glyph glyph-name="W" unicode="W" horiz-adv-x="1377" 
d="M218 0l-219 780h213l126 -465l146 465h178l146 -464l126 464h214l-219 -780h-207l-149 453l-148 -453h-207z" />
    <glyph glyph-name="X" unicode="X" horiz-adv-x="998" 
d="M766 780l-262 -388l268 -392h-243l-145 214l-144 -214h-243l268 392l-262 388h236l145 -213l146 213h236z" />
    <glyph glyph-name="Y" unicode="Y" horiz-adv-x="1046" 
d="M407 497l173 283h236l-309 -494v-286h-199v286l-308 494h235z" />
    <glyph glyph-name="Z" unicode="Z" horiz-adv-x="959" 
d="M43 780h649v-146l-364 -441h365v-193h-662v146l363 440h-351v194z" />
    <glyph glyph-name="bracketleft" unicode="[" horiz-adv-x="625" 
d="M361 -217h-303v1215h303v-188h-104v-840h104v-187z" />
    <glyph glyph-name="backslash" unicode="\" horiz-adv-x="1068" 
d="M237 958l579 -1136h-214l-581 1136h216z" />
    <glyph glyph-name="bracketright" unicode="]" horiz-adv-x="625" 
d="M34 997h303v-1215h-303v188h104v840h-104v187z" />
    <glyph glyph-name="asciicircum" unicode="^" horiz-adv-x="928" 
d="M435 780l227 -463h-212l-101 227l-102 -227h-211l226 463h173z" />
    <glyph glyph-name="underscore" unicode="_" horiz-adv-x="937" 
d="M659 -194h-611v172h611v-172z" />
    <glyph glyph-name="a" unicode="a" 
d="M514 780l315 -780h-218l-43 114h-307l-43 -114h-218l316 780h198zM415 524l-86 -229h171z" />
    <glyph glyph-name="b" unicode="b" horiz-adv-x="992" 
d="M60 780h388q122 0 187.5 -59t65.5 -156q0 -112 -95 -164q130 -49 130 -181q0 -98 -68.5 -159t-185.5 -61h-422v780zM260 598v-124h165q74 0 74 62q0 29 -16 45.5t-47 16.5h-176zM260 318v-137h200q74 0 74 70q0 67 -74 67h-200z" />
    <glyph glyph-name="c" unicode="c" horiz-adv-x="1047" 
d="M807 209q-52 -101 -151.5 -162.5t-218.5 -61.5q-169 0 -291.5 119t-122.5 286t122.5 286t291.5 119q119 0 217.5 -61t151.5 -161l-182 -82q-27 50 -77 80.5t-110 30.5q-88 0 -150 -62t-62 -150t62 -150t150 -62q61 0 110.5 30t76.5 81z" />
    <glyph glyph-name="d" unicode="d" horiz-adv-x="1048" 
d="M60 780h362q118 0 203 -54t125.5 -141t40.5 -195q0 -109 -40.5 -196t-125.5 -140.5t-203 -53.5h-362v780zM260 586v-393h147q87 0 134.5 53.5t47.5 143.5t-47.5 143t-134.5 53h-147z" />
    <glyph glyph-name="e" unicode="e" horiz-adv-x="926" 
d="M60 780h599v-194h-399v-112h328v-181h-328v-100h399v-193h-599v780z" />
    <glyph glyph-name="f" unicode="f" horiz-adv-x="895" 
d="M60 780h579v-194h-380v-138h319v-181h-319v-267h-199v780z" />
    <glyph glyph-name="g" unicode="g" horiz-adv-x="1062" 
d="M415 455h376v-455h-157v73q-28 -42 -81.5 -65t-115.5 -23q-170 0 -292 119t-122 286t122 286t292 119q99 0 186 -44t144 -119l-163 -110q-64 80 -167 80q-89 0 -150.5 -62t-61.5 -150t61.5 -150t150.5 -62q106 0 167 89v22h-189v166z" />
    <glyph glyph-name="h" unicode="h" horiz-adv-x="1067" 
d="M777 780v-780h-200v290h-318v-290h-199v780h199v-303h318v303h200z" />
    <glyph glyph-name="i" unicode="i" horiz-adv-x="550" 
d="M260 780v-780h-200v780h200z" />
    <glyph glyph-name="j" unicode="j" horiz-adv-x="895" 
d="M612 780v-491q0 -149 -83.5 -226.5t-213.5 -77.5q-126 0 -212.5 78t-86.5 226v68h200v-65q0 -114 99 -114q48 0 73 24.5t25 89.5v488h199z" />
    <glyph glyph-name="k" unicode="k" horiz-adv-x="998" 
d="M60 780h200v-269l242 269h258l-308 -335l324 -445h-248l-215 294l-53 -59v-235h-200v780z" />
    <glyph glyph-name="l" unicode="l" horiz-adv-x="876" 
d="M60 780h199v-587h374v-193h-573v780z" />
    <glyph glyph-name="m" unicode="m" horiz-adv-x="1203" 
d="M60 0v780h201l225 -493l226 493h201v-780h-199v367l-162 -337h-131l-162 337v-367h-199z" />
    <glyph glyph-name="n" unicode="n" horiz-adv-x="1067" 
d="M60 0v780h170l348 -436v436h199v-780h-169l-348 435v-435h-200z" />
    <glyph glyph-name="o" unicode="o" horiz-adv-x="1104" 
d="M23 390q0 167 122.5 286t291.5 119q171 0 292.5 -119t121.5 -286t-121.5 -286t-292.5 -119q-169 0 -291.5 119t-122.5 286zM225 390q0 -88 62 -150t150 -62q90 0 151 61.5t61 150.5t-61 150.5t-151 61.5q-88 0 -150 -62t-62 -150z" />
    <glyph glyph-name="p" unicode="p" horiz-adv-x="957" 
d="M60 780h344q147 0 226.5 -86.5t79.5 -212.5q0 -131 -79 -217.5t-227 -86.5h-144v-177h-200v780zM260 598v-239h133q115 0 115 121q0 51 -28 84.5t-87 33.5h-133z" />
    <glyph glyph-name="q" unicode="q" horiz-adv-x="1105" 
d="M23 390q0 167 122.5 286t291.5 119q171 0 292.5 -119t121.5 -286q0 -109 -55 -201.5t-147 -146.5q62 -43 102 -43q45 0 68 35l151 -122q-39 -54 -99 -80t-119 -26q-54 0 -107.5 23t-91.5 52t-89.5 62.5t-94.5 47.5q-147 23 -246.5 136.5t-99.5 262.5zM225 390
q0 -88 62 -150t150 -62q90 0 151 61.5t61 150.5t-61 150.5t-151 61.5q-88 0 -150 -62t-62 -150z" />
    <glyph glyph-name="r" unicode="r" horiz-adv-x="996" 
d="M441 780q143 0 217.5 -80.5t74.5 -204.5q0 -85 -39 -154.5t-115 -104.5l169 -236h-239l-148 209h-102v-209h-199v780h381zM259 598v-208h171q56 0 83 29t27 74q0 105 -110 105h-171z" />
    <glyph glyph-name="s" unicode="s" horiz-adv-x="929" 
d="M224 234v-5q0 -26 34.5 -48.5t97.5 -22.5q52 0 75.5 14t23.5 34q0 24 -29.5 42t-103.5 43q-47 16 -78.5 28t-75 35.5t-69.5 49t-45 64.5t-19 85q0 110 85 176t220 66q139 0 229 -69t90 -183v-11h-195v7q0 32 -31.5 57.5t-88.5 25.5q-47 0 -71 -15.5t-24 -37.5t27 -37.5
t102 -41.5l51 -18.5t53.5 -22t56.5 -29t49 -36t43.5 -45.5t27 -55t11.5 -67q0 -111 -86 -171.5t-224 -60.5q-145 0 -238 64t-93 176v9h195z" />
    <glyph glyph-name="t" unicode="t" horiz-adv-x="940" 
d="M12 780h686v-194h-243v-586h-200v586h-243v194z" />
    <glyph glyph-name="u" unicode="u" horiz-adv-x="1045" 
d="M766 780v-439q0 -156 -95 -256t-264 -100q-170 0 -264 99.5t-94 256.5v439h200v-427q0 -85 40 -130t118 -45t119 45t41 130v427h199z" />
    <glyph glyph-name="v" unicode="v" 
d="M315 0l-315 780h218l196 -524l197 524h218l-316 -780h-198z" />
    <glyph glyph-name="w" unicode="w" horiz-adv-x="1377" 
d="M218 0l-219 780h213l126 -465l146 465h178l146 -464l126 464h214l-219 -780h-207l-149 453l-148 -453h-207z" />
    <glyph glyph-name="x" unicode="x" horiz-adv-x="998" 
d="M766 780l-262 -388l268 -392h-243l-145 214l-144 -214h-243l268 392l-262 388h236l145 -213l146 213h236z" />
    <glyph glyph-name="y" unicode="y" horiz-adv-x="1046" 
d="M407 497l173 283h236l-309 -494v-286h-199v286l-308 494h235z" />
    <glyph glyph-name="z" unicode="z" horiz-adv-x="959" 
d="M43 780h649v-146l-364 -441h365v-193h-662v146l363 440h-351v194z" />
    <glyph glyph-name="braceleft" unicode="{" horiz-adv-x="604" 
d="M53 472h19q42 0 42 41q0 20 -19 59.5t-37.5 91.5t-18.5 100q0 99 69.5 166.5t186.5 67.5h38v-180h-38q-32 0 -52.5 -17.5t-20.5 -49.5q0 -29 43 -112.5t43 -128.5q0 -73 -55 -120q55 -46 55 -119q0 -45 -43 -129t-43 -112q0 -33 20.5 -50t52.5 -17h38v-180h-38
q-117 0 -186.5 67t-69.5 167q0 48 18.5 100t37.5 91.5t19 59.5q0 41 -42 41h-19v163z" />
    <glyph glyph-name="bar" unicode="|" horiz-adv-x="537" 
d="M250 966v-1151h-193v1151h193z" />
    <glyph glyph-name="braceright" unicode="}" horiz-adv-x="604" 
d="M321 309h-19q-42 0 -42 -41q0 -20 19 -59.5t37.5 -91.5t18.5 -100q0 -99 -69.5 -166.5t-186.5 -67.5h-38v180h38q32 0 52.5 17.5t20.5 49.5q0 29 -43 112.5t-43 128.5q0 73 55 120q-55 46 -55 119q0 45 43 129t43 112q0 33 -20.5 50t-52.5 17h-38v180h38q117 0 186.5 -67
t69.5 -167q0 -48 -18.5 -100t-37.5 -91.5t-19 -59.5q0 -41 42 -41h19v-163z" />
    <glyph glyph-name="asciitilde" unicode="~" horiz-adv-x="748" 
d="M56 238q0 27 4 53t16 61t41 56.5t72 21.5q49 0 103 -39q16 -12 24 -12t10 7t1 25h133q0 -27 -4 -53t-16 -61t-41 -56.5t-72 -21.5q-49 0 -103 39q-16 12 -24 12t-10 -7t-1 -25h-133z" />
    <glyph glyph-name="uni00A0" unicode="&#xa0;" horiz-adv-x="511" 
 />
    <glyph glyph-name="exclamdown" unicode="&#xa1;" horiz-adv-x="553" 
d="M288 671q0 -52 -37 -89t-89 -37t-89 37t-37 89t37 89t89 37t89 -37t37 -89zM50 0l45 496h133l45 -496h-223z" />
    <glyph glyph-name="cent" unicode="&#xa2;" horiz-adv-x="841" 
d="M573 209q-51 -96 -158 -134v-100h-187v100q-84 28 -137 99t-53 160q0 88 53 159t137 100v100h187v-101q104 -35 157 -133l-175 -78q-25 33 -68 33q-34 0 -58 -23.5t-24 -57.5t23.5 -57t58.5 -23q44 0 69 33z" />
    <glyph glyph-name="sterling" unicode="&#xa3;" horiz-adv-x="843" 
d="M44 142q50 23 68.5 50t20.5 63h-86v172h50q-20 62 -20 117q0 117 73 184t179 67q99 0 171 -60.5t72 -175.5v-18h-194v6q0 31 -16 42.5t-36 11.5q-25 0 -40.5 -13.5t-15.5 -39.5q0 -15 4 -31t15 -47l15 -43h162v-172h-140q-4 -37 -10 -56h245v-199h-517v142z" />
    <glyph glyph-name="yen" unicode="&#xa5;" horiz-adv-x="1102" 
d="M710 125h-174v-125h-200v125h-174v151h174v11l-13 21h-161v151h66l-200 321h236l172 -283l173 283h235l-200 -321h66v-151h-160l-14 -23v-9h174v-151z" />
    <glyph glyph-name="brokenbar" unicode="&#xa6;" horiz-adv-x="537" 
d="M250 966v-506h-193v506h193zM250 321v-506h-193v506h193z" />
    <glyph glyph-name="section" unicode="&#xa7;" horiz-adv-x="807" 
d="M538 372q0 -80 -73 -124q37 -45 37 -101q0 -77 -60.5 -119.5t-151.5 -42.5q-59 0 -106 17.5t-81 60t-38 105.5l-1 15h186v-8q0 -37 37 -37q27 0 27 22q0 8 -5 14t-17.5 12.5t-25.5 11.5t-38 15.5l-47 20.5q-143 69 -143 172q0 81 73 124q-37 45 -37 101q0 78 60.5 121
t148.5 43q93 0 159 -48t70 -136v-16h-186v9q0 37 -37 37q-27 0 -27 -20q0 -9 6.5 -17t20.5 -15t28.5 -12.5l37.5 -14.5t40 -17q143 -68 143 -173zM254 437q-23 -8 -23 -33q0 -10 4.5 -17.5t14.5 -13.5t17.5 -9.5t22.5 -9t20 -7.5l12 -5q23 8 23 33q0 10 -4.5 17.5
t-14.5 13.5t-17.5 9.5t-22.5 9t-20 7.5z" />
    <glyph glyph-name="dieresis" unicode="&#xa8;" horiz-adv-x="675" 
d="M0 928q0 39 28.5 67.5t68.5 28.5t68 -28.5t28 -67.5q0 -41 -28 -69.5t-68 -28.5t-68.5 28.5t-28.5 69.5zM252 928q0 39 28.5 67.5t68.5 28.5t68 -28.5t28 -67.5q0 -41 -28 -69.5t-68 -28.5t-68.5 28.5t-28.5 69.5z" />
    <glyph glyph-name="copyright" unicode="&#xa9;" horiz-adv-x="1118" 
d="M39 390q0 166 119 285.5t286 119.5q166 0 285.5 -119.5t119.5 -285.5q0 -167 -119.5 -286t-285.5 -119q-167 0 -286 119t-119 286zM186 390q0 -107 75.5 -182.5t182.5 -75.5t183.5 76t76.5 182q0 107 -76.5 183t-183.5 76t-182.5 -76t-75.5 -183zM626 296
q-26 -50 -74 -79.5t-106 -29.5q-85 0 -143.5 58.5t-58.5 143.5t58.5 143.5t143.5 58.5q57 0 105 -30t74 -79l-137 -64q-15 23 -42 23q-22 0 -37.5 -15t-15.5 -37t15.5 -37t37.5 -15q26 0 43 22z" />
    <glyph glyph-name="ordfeminine" unicode="&#xaa;" horiz-adv-x="757" 
d="M325 384q-36 -21 -91 -21q-86 0 -146 62.5t-60 152.5q0 91 60 154t146 63q53 0 91 -22v12h142v-412h-142v11zM171 578q0 -32 21 -53.5t54 -21.5t55 21.5t22 53.5q0 33 -22 55t-55 22t-54 -22t-21 -55z" />
    <glyph glyph-name="guillemotleft" unicode="&#xab;" horiz-adv-x="930" 
d="M48 443l283 251v-236l-104 -92l104 -93v-235l-283 250v155zM351 443l283 251v-236l-104 -92l104 -93v-235l-283 250v155z" />
    <glyph glyph-name="registered" unicode="&#xae;" horiz-adv-x="792" 
d="M38 552q0 100 71 171.5t172 71.5t172 -71.5t71 -171.5t-71 -171.5t-172 -71.5t-172 71.5t-71 171.5zM101 552q0 -75 52.5 -127.5t127.5 -52.5t127.5 52.5t52.5 127.5t-52.5 127.5t-127.5 52.5t-127.5 -52.5t-52.5 -127.5zM327 440l-38 67h-40v-67h-55v235h101
q40 0 63.5 -24t23.5 -59q0 -51 -41 -74l46 -78h-60zM249 622v-62h43q16 0 25 10t9 22q0 13 -9 21.5t-25 8.5h-43z" />
    <glyph glyph-name="macron" unicode="&#xaf;" horiz-adv-x="588" 
d="M358 830h-358v148h358v-148z" />
    <glyph glyph-name="degree" unicode="&#xb0;" horiz-adv-x="674" 
d="M28 600q0 81 56.5 138t136.5 57q81 0 138 -57t57 -138q0 -80 -57 -136.5t-138 -56.5q-80 0 -136.5 56.5t-56.5 136.5zM160 600q0 -26 18 -43.5t43 -17.5q26 0 44.5 18t18.5 43q0 26 -18.5 44.5t-44.5 18.5q-25 0 -43 -18.5t-18 -44.5z" />
    <glyph glyph-name="plusminus" unicode="&#xb1;" horiz-adv-x="796" 
d="M374 689v-140h142v-181h-142v-141h-182v141h-142v181h142v140h182zM516 16h-465v181h465v-181z" />
    <glyph glyph-name="uni00B2" unicode="&#xb2;" horiz-adv-x="668" 
d="M407 273h-385v103l187 164q37 33 49.5 47.5t12.5 30.5q0 17 -13 27.5t-36 10.5q-26 0 -42 -13.5t-16 -37.5v-16h-135v16q0 88 59 136.5t136 48.5t131.5 -47t54.5 -125q0 -39 -20.5 -77t-38.5 -55.5t-50 -45.5l-34 -29h140v-138z" />
    <glyph glyph-name="uni00B3" unicode="&#xb3;" horiz-adv-x="654" 
d="M86 427q63 -31 110 -31q65 0 65 36q0 41 -127 41v112q116 0 116 44q0 13 -12.5 23.5t-34.5 10.5q-49 0 -49 -34v-2h-131v14q0 69 54 109t126 40q74 0 129 -40t55 -103q0 -71 -61 -114q77 -39 77 -113q0 -71 -58.5 -114t-144.5 -43q-98 0 -189 51z" />
    <glyph glyph-name="paragraph" unicode="&#xb6;" horiz-adv-x="1069" 
d="M582 0v598h-40v-598h-193v229h-38q-114 0 -194 81t-80 195q0 113 80 194t194 81h464v-780h-193zM230 505q0 -41 22.5 -67.5t58.5 -26.5h38v187h-38q-36 0 -58.5 -26t-22.5 -67z" />
    <glyph glyph-name="periodcentered" unicode="&#xb7;" horiz-adv-x="550" 
d="M42 365q0 52 37 89t89 37t89 -37t37 -89t-37 -89t-89 -37t-89 37t-37 89z" />
    <glyph glyph-name="cedilla" unicode="&#xb8;" horiz-adv-x="553" 
d="M224 12l-11 -58q42 -13 61.5 -44.5t19.5 -70.5q0 -56 -36 -92.5t-101 -36.5q-30 0 -65.5 8t-55.5 16l-21 8l52 120q50 -25 82 -25q37 0 37 23q0 11 -9 19.5t-32 0.5l-48 43l35 89h92z" />
    <glyph glyph-name="uni00B9" unicode="&#xb9;" horiz-adv-x="495" 
d="M18 742l116 38h93v-507h-138v348l-71 -24v145z" />
    <glyph glyph-name="ordmasculine" unicode="&#xba;" horiz-adv-x="721" 
d="M27 578q0 91 63 154t154 63q92 0 156 -63t64 -154q0 -90 -64 -152.5t-156 -62.5q-91 0 -154 62.5t-63 152.5zM169 578q0 -32 21.5 -53.5t53.5 -21.5q34 0 56 21.5t22 53.5t-22 54.5t-56 22.5q-32 0 -53.5 -22.5t-21.5 -54.5z" />
    <glyph glyph-name="guillemotright" unicode="&#xbb;" horiz-adv-x="930" 
d="M349 289l-283 -251v236l104 92l-104 93v235l283 -250v-155zM652 289l-283 -251v236l104 92l-104 93v235l283 -250v-155z" />
    <glyph glyph-name="onequarter" unicode="&#xbc;" horiz-adv-x="1202" 
d="M44 742l116 38h93v-507h-138v348l-71 -24v145zM141 0l462 780h151l-462 -780h-151zM752 0v85h-240v107l186 315h153l-172 -292h73v91h134v-91h51v-130h-51v-85h-134z" />
    <glyph glyph-name="onehalf" unicode="&#xbd;" horiz-adv-x="1242" 
d="M39 742l116 38h93v-507h-138v348l-71 -24v145zM136 0l462 780h151l-462 -780h-151zM969 0h-385v103l187 164q37 33 49.5 47.5t12.5 30.5q0 17 -13 27.5t-36 10.5q-26 0 -42 -13.5t-16 -37.5v-16h-135v16q0 88 59 136.5t136 48.5t131.5 -47t54.5 -125q0 -39 -20.5 -77
t-38.5 -55.5t-50 -45.5l-34 -29h140v-138z" />
    <glyph glyph-name="threequarters" unicode="&#xbe;" horiz-adv-x="1318" 
d="M112 427q63 -31 110 -31q65 0 65 36q0 41 -127 41v112q116 0 116 44q0 13 -12.5 23.5t-34.5 10.5q-49 0 -49 -34v-2h-131v14q0 69 54 109t126 40q74 0 129 -40t55 -103q0 -71 -61 -114q77 -39 77 -113q0 -71 -58.5 -114t-144.5 -43q-98 0 -189 51zM257 0l462 780h151
l-462 -780h-151zM868 0v85h-240v107l186 315h153l-172 -292h73v91h134v-91h51v-130h-51v-85h-134z" />
    <glyph glyph-name="questiondown" unicode="&#xbf;" horiz-adv-x="821" 
d="M446 671q0 -52 -37 -89t-89 -37t-89 37t-37 89t37 89t89 37t89 -37t37 -89zM407 503v-32q0 -45 -20.5 -83.5t-41 -57t-55.5 -44.5q-25 -19 -36.5 -33t-11.5 -34q0 -18 13 -32.5t38 -14.5q28 0 47.5 19.5t19.5 59.5v9h195v-33q0 -59 -24.5 -106.5t-64 -76t-86.5 -44
t-95 -15.5q-101 0 -173 63.5t-72 166.5q0 116 112 192l23.5 16t24.5 17.5t17.5 16t14.5 21t4 23.5v2h171z" />
    <glyph glyph-name="Agrave" unicode="&#xc0;" 
d="M567 836l-314 54l4 45l320 -69zM514 780l315 -780h-218l-43 114h-307l-43 -114h-218l316 780h198zM415 524l-86 -229h171z" />
    <glyph glyph-name="Aacute" unicode="&#xc1;" 
d="M263 836l-10 30l320 69l4 -45zM514 780l315 -780h-218l-43 114h-307l-43 -114h-218l316 780h198zM415 524l-86 -229h171z" />
    <glyph glyph-name="Acircumflex" unicode="&#xc2;" 
d="M576 825l-161 53l-163 -53l-15 17l178 79l177 -79zM514 780l315 -780h-218l-43 114h-307l-43 -114h-218l316 780h198zM415 524l-86 -229h171z" />
    <glyph glyph-name="Atilde" unicode="&#xc3;" 
d="M230 840q20 72 93 72q41 0 93 -29q42 -22 76 -22q52 0 76 32h32q-20 -72 -93 -72q-42 0 -93 29q-41 22 -76 22q-53 0 -76 -32h-32zM514 780l315 -780h-218l-43 114h-307l-43 -114h-218l316 780h198zM415 524l-86 -229h171z" />
    <glyph glyph-name="Adieresis" unicode="&#xc4;" 
d="M193 928q0 39 28.5 67.5t68.5 28.5t68 -28.5t28 -67.5q0 -41 -28 -69.5t-68 -28.5t-68.5 28.5t-28.5 69.5zM445 928q0 39 28.5 67.5t68.5 28.5t68 -28.5t28 -67.5q0 -41 -28 -69.5t-68 -28.5t-68.5 28.5t-28.5 69.5zM514 780l315 -780h-218l-43 114h-307l-43 -114h-218
l316 780h198zM415 524l-86 -229h171z" />
    <glyph glyph-name="Aring" unicode="&#xc5;" 
d="M250 911q0 69 48.5 118t116.5 49t117.5 -49.5t49.5 -117.5q0 -82 -68 -132l315 -779h-218l-43 114h-307l-43 -114h-218l315 779q-65 49 -65 132zM367 911q0 -20 14 -34t34 -14t34 14t14 34t-14 34t-34 14t-34 -14t-14 -34zM415 524l-86 -229h171z" />
    <glyph glyph-name="AE" unicode="&#xc6;" horiz-adv-x="1511" 
d="M645 114h-308l-90 -114h-257l627 780h627v-194h-400v-112h329v-181h-329v-100h400v-193h-599v114zM645 295v210l-166 -210h166z" />
    <glyph glyph-name="Ccedilla" unicode="&#xc7;" horiz-adv-x="1047" 
d="M807 209q-48 -95 -139 -155t-201 -68l-9 -47q42 -13 61.5 -44.5t19.5 -70.5q0 -56 -36 -92.5t-101 -36.5q-30 0 -65.5 8t-56.5 16l-20 8l52 120q50 -25 82 -25q37 0 37 23q0 11 -9 19.5t-32 0.5l-48 43l32 82q-149 23 -250 136.5t-101 263.5q0 167 122.5 286t291.5 119
q119 0 217.5 -61t151.5 -161l-182 -82q-27 50 -77 80.5t-110 30.5q-88 0 -150 -62t-62 -150t62 -150t150 -62q61 0 110.5 30t76.5 81z" />
    <glyph glyph-name="Egrave" unicode="&#xc8;" horiz-adv-x="926" 
d="M506 836l-314 54l4 45l320 -69zM60 780h599v-194h-399v-112h328v-181h-328v-100h399v-193h-599v780z" />
    <glyph glyph-name="Eacute" unicode="&#xc9;" horiz-adv-x="926" 
d="M202 836l-10 30l320 69l4 -45zM60 780h599v-194h-399v-112h328v-181h-328v-100h399v-193h-599v780z" />
    <glyph glyph-name="Ecircumflex" unicode="&#xca;" horiz-adv-x="926" 
d="M515 825l-161 53l-163 -53l-15 17l178 79l177 -79zM60 780h599v-194h-399v-112h328v-181h-328v-100h399v-193h-599v780z" />
    <glyph glyph-name="Edieresis" unicode="&#xcb;" horiz-adv-x="926" 
d="M137 928q0 39 28.5 67.5t68.5 28.5t68 -28.5t28 -67.5q0 -41 -28 -69.5t-68 -28.5t-68.5 28.5t-28.5 69.5zM389 928q0 39 28.5 67.5t68.5 28.5t68 -28.5t28 -67.5q0 -41 -28 -69.5t-68 -28.5t-68.5 28.5t-28.5 69.5zM60 780h599v-194h-399v-112h328v-181h-328v-100h399
v-193h-599v780z" />
    <glyph glyph-name="Igrave" unicode="&#xcc;" horiz-adv-x="550" 
d="M309 836l-314 54l4 45l320 -69zM260 780v-780h-200v780h200z" />
    <glyph glyph-name="Iacute" unicode="&#xcd;" horiz-adv-x="550" 
d="M5 836l-10 30l320 69l4 -45zM260 780v-780h-200v780h200z" />
    <glyph glyph-name="Icircumflex" unicode="&#xce;" horiz-adv-x="550" 
d="M300 825l-141 93l-143 -93l-85 107l228 179l227 -179zM260 780v-780h-200v780h200z" />
    <glyph glyph-name="Idieresis" unicode="&#xcf;" horiz-adv-x="550" 
d="M-63 928q0 39 28.5 67.5t68.5 28.5t68 -28.5t28 -67.5q0 -41 -28 -69.5t-68 -28.5t-68.5 28.5t-28.5 69.5zM189 928q0 39 28.5 67.5t68.5 28.5t68 -28.5t28 -67.5q0 -41 -28 -69.5t-68 -28.5t-68.5 28.5t-28.5 69.5zM260 780v-780h-200v780h200z" />
    <glyph glyph-name="Eth" unicode="&#xd0;" horiz-adv-x="1053" 
d="M65 297h-57v172h57v311h362q118 0 203 -54t125.5 -141t40.5 -195q0 -109 -40.5 -196t-125.5 -140.5t-203 -53.5h-362v297zM430 297h-165v-104h147q87 0 134.5 53.5t47.5 143.5t-47.5 143t-134.5 53h-147v-117h165v-172z" />
    <glyph glyph-name="Ntilde" unicode="&#xd1;" horiz-adv-x="1067" 
d="M217 849q0 27 4 53t16 61t41 56.5t72 21.5q49 0 103 -39q16 -12 24 -12t10 7t1 25h133q0 -27 -4 -53t-16 -61t-41 -56.5t-72 -21.5q-49 0 -103 39q-16 12 -24 12t-10 -7t-1 -25h-133zM60 0v780h170l348 -436v436h199v-780h-169l-348 435v-435h-200z" />
    <glyph glyph-name="Ograve" unicode="&#xd2;" horiz-adv-x="1104" 
d="M598 836l-314 54l4 45l320 -69zM23 390q0 167 122.5 286t291.5 119q171 0 292.5 -119t121.5 -286t-121.5 -286t-292.5 -119q-169 0 -291.5 119t-122.5 286zM225 390q0 -88 62 -150t150 -62q90 0 151 61.5t61 150.5t-61 150.5t-151 61.5q-88 0 -150 -62t-62 -150z" />
    <glyph glyph-name="Oacute" unicode="&#xd3;" horiz-adv-x="1104" 
d="M294 836l-10 30l320 69l4 -45zM23 390q0 167 122.5 286t291.5 119q171 0 292.5 -119t121.5 -286t-121.5 -286t-292.5 -119q-169 0 -291.5 119t-122.5 286zM225 390q0 -88 62 -150t150 -62q90 0 151 61.5t61 150.5t-61 150.5t-151 61.5q-88 0 -150 -62t-62 -150z" />
    <glyph glyph-name="Ocircumflex" unicode="&#xd4;" horiz-adv-x="1104" 
d="M607 825l-161 53l-163 -53l-15 17l178 79l177 -79zM23 390q0 167 122.5 286t291.5 119q171 0 292.5 -119t121.5 -286t-121.5 -286t-292.5 -119q-169 0 -291.5 119t-122.5 286zM225 390q0 -88 62 -150t150 -62q90 0 151 61.5t61 150.5t-61 150.5t-151 61.5q-88 0 -150 -62
t-62 -150z" />
    <glyph glyph-name="Otilde" unicode="&#xd5;" horiz-adv-x="1104" 
d="M261 840q20 72 93 72q41 0 93 -29q42 -22 76 -22q52 0 76 32h32q-19 -72 -93 -72q-42 0 -93 29q-41 22 -76 22q-53 0 -76 -32h-32zM23 390q0 167 122.5 286t291.5 119q171 0 292.5 -119t121.5 -286t-121.5 -286t-292.5 -119q-169 0 -291.5 119t-122.5 286zM225 390
q0 -88 62 -150t150 -62q90 0 151 61.5t61 150.5t-61 150.5t-151 61.5q-88 0 -150 -62t-62 -150z" />
    <glyph glyph-name="Odieresis" unicode="&#xd6;" horiz-adv-x="1104" 
d="M215 928q0 39 28.5 67.5t68.5 28.5t68 -28.5t28 -67.5q0 -41 -28 -69.5t-68 -28.5t-68.5 28.5t-28.5 69.5zM467 928q0 39 28.5 67.5t68.5 28.5t68 -28.5t28 -67.5q0 -41 -28 -69.5t-68 -28.5t-68.5 28.5t-28.5 69.5zM23 390q0 167 122.5 286t291.5 119q171 0 292.5 -119
t121.5 -286t-121.5 -286t-292.5 -119q-169 0 -291.5 119t-122.5 286zM225 390q0 -88 62 -150t150 -62q90 0 151 61.5t61 150.5t-61 150.5t-151 61.5q-88 0 -150 -62t-62 -150z" />
    <glyph glyph-name="multiply" unicode="&#xd7;" horiz-adv-x="821" 
d="M40 240l127 127l-127 127l129 128l126 -127l127 127l129 -128l-127 -127l127 -127l-129 -128l-127 126l-126 -126z" />
    <glyph glyph-name="Oslash" unicode="&#xd8;" horiz-adv-x="1103" 
d="M23 390q0 167 122 286t292 119q104 0 200 -51l29 36h169l-94 -117q110 -116 110 -273q0 -167 -122 -286t-292 -119q-106 0 -200 51l-29 -36h-169l93 116q-109 115 -109 274zM225 390q0 -65 34 -116l253 314q-37 14 -75 14q-89 0 -150.5 -62t-61.5 -150zM649 390
q0 63 -34 116l-254 -315q35 -13 76 -13q89 0 150.5 61.5t61.5 150.5z" />
    <glyph glyph-name="Ugrave" unicode="&#xd9;" horiz-adv-x="1045" 
d="M562 836l-314 54l4 45l320 -69zM766 780v-439q0 -156 -95 -256t-264 -100q-170 0 -264 99.5t-94 256.5v439h200v-427q0 -85 40 -130t118 -45t119 45t41 130v427h199z" />
    <glyph glyph-name="Uacute" unicode="&#xda;" horiz-adv-x="1045" 
d="M258 836l-10 30l320 69l4 -45zM766 780v-439q0 -156 -95 -256t-264 -100q-170 0 -264 99.5t-94 256.5v439h200v-427q0 -85 40 -130t118 -45t119 45t41 130v427h199z" />
    <glyph glyph-name="Ucircumflex" unicode="&#xdb;" horiz-adv-x="1045" 
d="M548 825l-141 93l-143 -93l-85 107l228 179l227 -179zM766 780v-439q0 -156 -95 -256t-264 -100q-170 0 -264 99.5t-94 256.5v439h200v-427q0 -85 40 -130t118 -45t119 45t41 130v427h199z" />
    <glyph glyph-name="Udieresis" unicode="&#xdc;" horiz-adv-x="1045" 
d="M185 928q0 39 28.5 67.5t68.5 28.5t68 -28.5t28 -67.5q0 -41 -28 -69.5t-68 -28.5t-68.5 28.5t-28.5 69.5zM437 928q0 39 28.5 67.5t68.5 28.5t68 -28.5t28 -67.5q0 -41 -28 -69.5t-68 -28.5t-68.5 28.5t-28.5 69.5zM766 780v-439q0 -156 -95 -256t-264 -100
q-170 0 -264 99.5t-94 256.5v439h200v-427q0 -85 40 -130t118 -45t119 45t41 130v427h199z" />
    <glyph glyph-name="Yacute" unicode="&#xdd;" horiz-adv-x="1046" 
d="M261 836l-10 30l320 69l4 -45zM407 497l173 283h236l-309 -494v-286h-199v286l-308 494h235z" />
    <glyph glyph-name="Thorn" unicode="&#xde;" horiz-adv-x="966" 
d="M60 780h200v-90h144q147 0 226.5 -86.5t79.5 -212.5q0 -131 -79 -217.5t-227 -86.5h-144v-87h-200v780zM260 508v-239h133q115 0 115 121q0 51 -28 84.5t-87 33.5h-133z" />
    <glyph glyph-name="germandbls" unicode="&#xdf;" horiz-adv-x="1114" 
d="M443 228q48 -64 127 -64q44 0 71 22t27 55q0 51 -56 72.5t-146 -1.5l-99 136l199 155q-61 19 -155 19q-84 0 -128 -44.5t-44 -114.5v-463h-188v478q0 64 22.5 121.5t65.5 103.5t114 73.5t160 27.5q79 0 189 -20t204 -51v-142l-156 -121q35 -6 70 -22t67.5 -42.5t53 -69
t20.5 -93.5q0 -108 -80.5 -183t-202.5 -75q-87 0 -166 36.5t-129 105.5z" />
    <glyph glyph-name="agrave" unicode="&#xe0;" 
d="M567 836l-314 54l4 45l320 -69zM514 780l315 -780h-218l-43 114h-307l-43 -114h-218l316 780h198zM415 524l-86 -229h171z" />
    <glyph glyph-name="aacute" unicode="&#xe1;" 
d="M263 836l-10 30l320 69l4 -45zM514 780l315 -780h-218l-43 114h-307l-43 -114h-218l316 780h198zM415 524l-86 -229h171z" />
    <glyph glyph-name="acircumflex" unicode="&#xe2;" 
d="M576 825l-161 53l-163 -53l-15 17l178 79l177 -79zM514 780l315 -780h-218l-43 114h-307l-43 -114h-218l316 780h198zM415 524l-86 -229h171z" />
    <glyph glyph-name="atilde" unicode="&#xe3;" 
d="M230 840q20 72 93 72q41 0 93 -29q42 -22 76 -22q52 0 76 32h32q-20 -72 -93 -72q-42 0 -93 29q-41 22 -76 22q-53 0 -76 -32h-32zM514 780l315 -780h-218l-43 114h-307l-43 -114h-218l316 780h198zM415 524l-86 -229h171z" />
    <glyph glyph-name="adieresis" unicode="&#xe4;" 
d="M193 928q0 39 28.5 67.5t68.5 28.5t68 -28.5t28 -67.5q0 -41 -28 -69.5t-68 -28.5t-68.5 28.5t-28.5 69.5zM445 928q0 39 28.5 67.5t68.5 28.5t68 -28.5t28 -67.5q0 -41 -28 -69.5t-68 -28.5t-68.5 28.5t-28.5 69.5zM514 780l315 -780h-218l-43 114h-307l-43 -114h-218
l316 780h198zM415 524l-86 -229h171z" />
    <glyph glyph-name="aring" unicode="&#xe5;" 
d="M250 911q0 69 48.5 118t116.5 49t117.5 -49.5t49.5 -117.5q0 -82 -68 -132l315 -779h-218l-43 114h-307l-43 -114h-218l315 779q-65 49 -65 132zM367 911q0 -20 14 -34t34 -14t34 14t14 34t-14 34t-34 14t-34 -14t-14 -34zM415 524l-86 -229h171z" />
    <glyph glyph-name="ae" unicode="&#xe6;" horiz-adv-x="1511" 
d="M645 114h-308l-90 -114h-257l627 780h627v-194h-400v-112h329v-181h-329v-100h400v-193h-599v114zM645 295v210l-166 -210h166z" />
    <glyph glyph-name="ccedilla" unicode="&#xe7;" horiz-adv-x="1047" 
d="M807 209q-48 -95 -139 -155t-201 -68l-9 -47q42 -13 61.5 -44.5t19.5 -70.5q0 -56 -36 -92.5t-101 -36.5q-30 0 -65.5 8t-56.5 16l-20 8l52 120q50 -25 82 -25q37 0 37 23q0 11 -9 19.5t-32 0.5l-48 43l32 82q-149 23 -250 136.5t-101 263.5q0 167 122.5 286t291.5 119
q119 0 217.5 -61t151.5 -161l-182 -82q-27 50 -77 80.5t-110 30.5q-88 0 -150 -62t-62 -150t62 -150t150 -62q61 0 110.5 30t76.5 81z" />
    <glyph glyph-name="egrave" unicode="&#xe8;" horiz-adv-x="926" 
d="M494 836l-314 54l4 45l320 -69zM60 780h599v-194h-399v-112h328v-181h-328v-100h399v-193h-599v780z" />
    <glyph glyph-name="eacute" unicode="&#xe9;" horiz-adv-x="926" 
d="M190 836l-10 30l320 69l4 -45zM60 780h599v-194h-399v-112h328v-181h-328v-100h399v-193h-599v780z" />
    <glyph glyph-name="ecircumflex" unicode="&#xea;" horiz-adv-x="926" 
d="M503 825l-161 53l-163 -53l-15 17l178 79l177 -79zM60 780h599v-194h-399v-112h328v-181h-328v-100h399v-193h-599v780z" />
    <glyph glyph-name="edieresis" unicode="&#xeb;" horiz-adv-x="926" 
d="M137 928q0 39 28.5 67.5t68.5 28.5t68 -28.5t28 -67.5q0 -41 -28 -69.5t-68 -28.5t-68.5 28.5t-28.5 69.5zM389 928q0 39 28.5 67.5t68.5 28.5t68 -28.5t28 -67.5q0 -41 -28 -69.5t-68 -28.5t-68.5 28.5t-28.5 69.5zM60 780h599v-194h-399v-112h328v-181h-328v-100h399
v-193h-599v780z" />
    <glyph glyph-name="igrave" unicode="&#xec;" horiz-adv-x="550" 
d="M313 836l-314 54l4 45l320 -69zM260 780v-780h-200v780h200z" />
    <glyph glyph-name="iacute" unicode="&#xed;" horiz-adv-x="550" 
d="M9 836l-10 30l320 69l4 -45zM260 780v-780h-200v780h200z" />
    <glyph glyph-name="icircumflex" unicode="&#xee;" horiz-adv-x="550" 
d="M300 825l-141 93l-143 -93l-85 107l228 179l227 -179zM260 780v-780h-200v780h200z" />
    <glyph glyph-name="idieresis" unicode="&#xef;" horiz-adv-x="550" 
d="M-63 928q0 39 28.5 67.5t68.5 28.5t68 -28.5t28 -67.5q0 -41 -28 -69.5t-68 -28.5t-68.5 28.5t-28.5 69.5zM189 928q0 39 28.5 67.5t68.5 28.5t68 -28.5t28 -67.5q0 -41 -28 -69.5t-68 -28.5t-68.5 28.5t-28.5 69.5zM260 780v-780h-200v780h200z" />
    <glyph glyph-name="eth" unicode="&#xf0;" horiz-adv-x="1053" 
d="M65 297h-57v172h57v311h362q118 0 203 -54t125.5 -141t40.5 -195q0 -109 -40.5 -196t-125.5 -140.5t-203 -53.5h-362v297zM430 297h-165v-104h147q87 0 134.5 53.5t47.5 143.5t-47.5 143t-134.5 53h-147v-117h165v-172z" />
    <glyph glyph-name="ntilde" unicode="&#xf1;" horiz-adv-x="1067" 
d="M217 849q0 27 4 53t16 61t41 56.5t72 21.5q49 0 103 -39q16 -12 24 -12t10 7t1 25h133q0 -27 -4 -53t-16 -61t-41 -56.5t-72 -21.5q-49 0 -103 39q-16 12 -24 12t-10 -7t-1 -25h-133zM60 0v780h170l348 -436v436h199v-780h-169l-348 435v-435h-200z" />
    <glyph glyph-name="ograve" unicode="&#xf2;" horiz-adv-x="1104" 
d="M589 851l-314 54l4 45l320 -69zM23 390q0 167 122.5 286t291.5 119q171 0 292.5 -119t121.5 -286t-121.5 -286t-292.5 -119q-169 0 -291.5 119t-122.5 286zM225 390q0 -88 62 -150t150 -62q90 0 151 61.5t61 150.5t-61 150.5t-151 61.5q-88 0 -150 -62t-62 -150z" />
    <glyph glyph-name="oacute" unicode="&#xf3;" horiz-adv-x="1104" 
d="M285 851l-10 30l320 69l4 -45zM23 390q0 167 122.5 286t291.5 119q171 0 292.5 -119t121.5 -286t-121.5 -286t-292.5 -119q-169 0 -291.5 119t-122.5 286zM225 390q0 -88 62 -150t150 -62q90 0 151 61.5t61 150.5t-61 150.5t-151 61.5q-88 0 -150 -62t-62 -150z" />
    <glyph glyph-name="ocircumflex" unicode="&#xf4;" horiz-adv-x="1104" 
d="M598 840l-161 53l-163 -53l-15 17l178 79l177 -79zM23 390q0 167 122.5 286t291.5 119q171 0 292.5 -119t121.5 -286t-121.5 -286t-292.5 -119q-169 0 -291.5 119t-122.5 286zM225 390q0 -88 62 -150t150 -62q90 0 151 61.5t61 150.5t-61 150.5t-151 61.5q-88 0 -150 -62
t-62 -150z" />
    <glyph glyph-name="otilde" unicode="&#xf5;" horiz-adv-x="1104" 
d="M252 855q20 72 93 72q41 0 93 -29q42 -22 76 -22q52 0 76 32h32q-20 -72 -93 -72q-42 0 -93 29q-41 22 -76 22q-53 0 -76 -32h-32zM23 390q0 167 122.5 286t291.5 119q171 0 292.5 -119t121.5 -286t-121.5 -286t-292.5 -119q-169 0 -291.5 119t-122.5 286zM225 390
q0 -88 62 -150t150 -62q90 0 151 61.5t61 150.5t-61 150.5t-151 61.5q-88 0 -150 -62t-62 -150z" />
    <glyph glyph-name="odieresis" unicode="&#xf6;" horiz-adv-x="1104" 
d="M215 928q0 39 28.5 67.5t68.5 28.5t68 -28.5t28 -67.5q0 -41 -28 -69.5t-68 -28.5t-68.5 28.5t-28.5 69.5zM467 928q0 39 28.5 67.5t68.5 28.5t68 -28.5t28 -67.5q0 -41 -28 -69.5t-68 -28.5t-68.5 28.5t-28.5 69.5zM23 390q0 167 122.5 286t291.5 119q171 0 292.5 -119
t121.5 -286t-121.5 -286t-292.5 -119q-169 0 -291.5 119t-122.5 286zM225 390q0 -88 62 -150t150 -62q90 0 151 61.5t61 150.5t-61 150.5t-151 61.5q-88 0 -150 -62t-62 -150z" />
    <glyph glyph-name="divide" unicode="&#xf7;" horiz-adv-x="773" 
d="M145 603q0 52 37 89t89 37t89 -37t37 -89t-37 -89t-89 -37t-89 37t-37 89zM504 275h-465v181h465v-181zM145 128q0 52 37 89t89 37t89 -37t37 -89t-37 -89t-89 -37t-89 37t-37 89z" />
    <glyph glyph-name="oslash" unicode="&#xf8;" horiz-adv-x="1103" 
d="M23 390q0 167 122 286t292 119q104 0 200 -51l29 36h169l-94 -117q110 -116 110 -273q0 -167 -122 -286t-292 -119q-106 0 -200 51l-29 -36h-169l93 116q-109 115 -109 274zM225 390q0 -65 34 -116l253 314q-37 14 -75 14q-89 0 -150.5 -62t-61.5 -150zM649 390
q0 63 -34 116l-254 -315q35 -13 76 -13q89 0 150.5 61.5t61.5 150.5z" />
    <glyph glyph-name="ugrave" unicode="&#xf9;" horiz-adv-x="1045" 
d="M565 836l-314 54l4 45l320 -69zM766 780v-439q0 -156 -95 -256t-264 -100q-170 0 -264 99.5t-94 256.5v439h200v-427q0 -85 40 -130t118 -45t119 45t41 130v427h199z" />
    <glyph glyph-name="uacute" unicode="&#xfa;" horiz-adv-x="1045" 
d="M261 836l-10 30l320 69l4 -45zM766 780v-439q0 -156 -95 -256t-264 -100q-170 0 -264 99.5t-94 256.5v439h200v-427q0 -85 40 -130t118 -45t119 45t41 130v427h199z" />
    <glyph glyph-name="ucircumflex" unicode="&#xfb;" horiz-adv-x="1045" 
d="M548 825l-141 93l-143 -93l-85 107l228 179l227 -179zM766 780v-439q0 -156 -95 -256t-264 -100q-170 0 -264 99.5t-94 256.5v439h200v-427q0 -85 40 -130t118 -45t119 45t41 130v427h199z" />
    <glyph glyph-name="udieresis" unicode="&#xfc;" horiz-adv-x="1045" 
d="M185 928q0 39 28.5 67.5t68.5 28.5t68 -28.5t28 -67.5q0 -41 -28 -69.5t-68 -28.5t-68.5 28.5t-28.5 69.5zM437 928q0 39 28.5 67.5t68.5 28.5t68 -28.5t28 -67.5q0 -41 -28 -69.5t-68 -28.5t-68.5 28.5t-28.5 69.5zM766 780v-439q0 -156 -95 -256t-264 -100
q-170 0 -264 99.5t-94 256.5v439h200v-427q0 -85 40 -130t118 -45t119 45t41 130v427h199z" />
    <glyph glyph-name="yacute" unicode="&#xfd;" horiz-adv-x="1046" 
d="M255 836l-10 30l320 69l4 -45zM407 497l173 283h236l-309 -494v-286h-199v286l-308 494h235z" />
    <glyph glyph-name="thorn" unicode="&#xfe;" horiz-adv-x="966" 
d="M60 780h200v-90h144q147 0 226.5 -86.5t79.5 -212.5q0 -131 -79 -217.5t-227 -86.5h-144v-87h-200v780zM260 508v-239h133q115 0 115 121q0 51 -28 84.5t-87 33.5h-133z" />
    <glyph glyph-name="ydieresis" unicode="&#xff;" horiz-adv-x="1046" 
d="M185 928q0 39 28.5 67.5t68.5 28.5t68 -28.5t28 -67.5q0 -41 -28 -69.5t-68 -28.5t-68.5 28.5t-28.5 69.5zM437 928q0 39 28.5 67.5t68.5 28.5t68 -28.5t28 -67.5q0 -41 -28 -69.5t-68 -28.5t-68.5 28.5t-28.5 69.5zM407 497l173 283h236l-309 -494v-286h-199v286
l-308 494h235z" />
    <glyph glyph-name="Amacron" unicode="&#x100;" 
d="M594 830h-358v148h358v-148zM514 780l315 -780h-218l-43 114h-307l-43 -114h-218l316 780h198zM415 524l-86 -229h171z" />
    <glyph glyph-name="amacron" unicode="&#x101;" 
d="M594 830h-358v148h358v-148zM514 780l315 -780h-218l-43 114h-307l-43 -114h-218l316 780h198zM415 524l-86 -229h171z" />
    <glyph glyph-name="Abreve" unicode="&#x102;" 
d="M270 901q14 -33 45 -46.5t99 -13.5q73 0 101 13t43 47h40q-24 -50 -68.5 -70.5t-115.5 -20.5q-72 0 -116 20.5t-67 70.5h39zM514 780l315 -780h-218l-43 114h-307l-43 -114h-218l316 780h198zM415 524l-86 -229h171z" />
    <glyph glyph-name="abreve" unicode="&#x103;" 
d="M270 901q14 -33 45 -46.5t99 -13.5q73 0 101 13t43 47h40q-24 -50 -68.5 -70.5t-115.5 -20.5q-72 0 -116 20.5t-67 70.5h39zM514 780l315 -780h-218l-43 114h-307l-43 -114h-218l316 780h198zM415 524l-86 -229h171z" />
    <glyph glyph-name="Aogonek" unicode="&#x104;" 
d="M513 780l316 -780q-91 -41 -91 -87q0 -20 17 -27.5t43 -2.5l23 -143q-92 -11 -152.5 26.5t-60.5 108.5q0 74 71 125h-68l-43 114h-307l-43 -114h-218l316 780h197zM415 524l-86 -229h171z" />
    <glyph glyph-name="aogonek" unicode="&#x105;" 
d="M513 780l316 -780q-91 -41 -91 -87q0 -20 17 -27.5t43 -2.5l23 -143q-92 -11 -152.5 26.5t-60.5 108.5q0 74 71 125h-68l-43 114h-307l-43 -114h-218l316 780h197zM415 524l-86 -229h171z" />
    <glyph glyph-name="Cacute" unicode="&#x106;" horiz-adv-x="1047" 
d="M259 944l260 185l97 -168l-290 -133zM807 209q-52 -101 -151.5 -162.5t-218.5 -61.5q-169 0 -291.5 119t-122.5 286t122.5 286t291.5 119q119 0 217.5 -61t151.5 -161l-182 -82q-27 50 -77 80.5t-110 30.5q-88 0 -150 -62t-62 -150t62 -150t150 -62q61 0 110.5 30
t76.5 81z" />
    <glyph glyph-name="cacute" unicode="&#x107;" horiz-adv-x="1047" 
d="M259 944l260 185l97 -168l-290 -133zM807 209q-52 -101 -151.5 -162.5t-218.5 -61.5q-169 0 -291.5 119t-122.5 286t122.5 286t291.5 119q119 0 217.5 -61t151.5 -161l-182 -82q-27 50 -77 80.5t-110 30.5q-88 0 -150 -62t-62 -150t62 -150t150 -62q61 0 110.5 30
t76.5 81z" />
    <glyph glyph-name="Cdotaccent" unicode="&#x10a;" horiz-adv-x="1047" 
d="M343 918q0 39 28.5 67.5t68.5 28.5t68 -28.5t28 -67.5q0 -41 -28 -69.5t-68 -28.5t-68.5 28.5t-28.5 69.5zM807 209q-52 -101 -151.5 -162.5t-218.5 -61.5q-169 0 -291.5 119t-122.5 286t122.5 286t291.5 119q119 0 217.5 -61t151.5 -161l-182 -82q-27 50 -77 80.5
t-110 30.5q-88 0 -150 -62t-62 -150t62 -150t150 -62q61 0 110.5 30t76.5 81z" />
    <glyph glyph-name="cdotaccent" unicode="&#x10b;" horiz-adv-x="1047" 
d="M343 918q0 39 28.5 67.5t68.5 28.5t68 -28.5t28 -67.5q0 -41 -28 -69.5t-68 -28.5t-68.5 28.5t-28.5 69.5zM807 209q-52 -101 -151.5 -162.5t-218.5 -61.5q-169 0 -291.5 119t-122.5 286t122.5 286t291.5 119q119 0 217.5 -61t151.5 -161l-182 -82q-27 50 -77 80.5
t-110 30.5q-88 0 -150 -62t-62 -150t62 -150t150 -62q61 0 110.5 30t76.5 81z" />
    <glyph glyph-name="Ccaron" unicode="&#x10c;" horiz-adv-x="1047" 
d="M664 1004l-227 -179l-228 179l85 107l143 -92l141 92zM807 209q-52 -101 -151.5 -162.5t-218.5 -61.5q-169 0 -291.5 119t-122.5 286t122.5 286t291.5 119q119 0 217.5 -61t151.5 -161l-182 -82q-27 50 -77 80.5t-110 30.5q-88 0 -150 -62t-62 -150t62 -150t150 -62
q61 0 110.5 30t76.5 81z" />
    <glyph glyph-name="ccaron" unicode="&#x10d;" horiz-adv-x="1047" 
d="M664 1004l-227 -179l-228 179l85 107l143 -92l141 92zM807 209q-52 -101 -151.5 -162.5t-218.5 -61.5q-169 0 -291.5 119t-122.5 286t122.5 286t291.5 119q119 0 217.5 -61t151.5 -161l-182 -82q-27 50 -77 80.5t-110 30.5q-88 0 -150 -62t-62 -150t62 -150t150 -62
q61 0 110.5 30t76.5 81z" />
    <glyph glyph-name="Dcaron" unicode="&#x10e;" horiz-adv-x="1048" 
d="M652 1004l-227 -179l-228 179l85 107l143 -92l141 92zM60 780h362q118 0 203 -54t125.5 -141t40.5 -195q0 -109 -40.5 -196t-125.5 -140.5t-203 -53.5h-362v780zM260 586v-393h147q87 0 134.5 53.5t47.5 143.5t-47.5 143t-134.5 53h-147z" />
    <glyph glyph-name="dcaron" unicode="&#x10f;" horiz-adv-x="1048" 
d="M652 1004l-227 -179l-228 179l85 107l143 -92l141 92zM60 780h362q118 0 203 -54t125.5 -141t40.5 -195q0 -109 -40.5 -196t-125.5 -140.5t-203 -53.5h-362v780zM260 586v-393h147q87 0 134.5 53.5t47.5 143.5t-47.5 143t-134.5 53h-147z" />
    <glyph glyph-name="Dcroat" unicode="&#x110;" horiz-adv-x="1053" 
d="M65 297h-57v172h57v311h362q118 0 203 -54t125.5 -141t40.5 -195q0 -109 -40.5 -196t-125.5 -140.5t-203 -53.5h-362v297zM430 297h-165v-104h147q87 0 134.5 53.5t47.5 143.5t-47.5 143t-134.5 53h-147v-117h165v-172z" />
    <glyph glyph-name="dcroat" unicode="&#x111;" horiz-adv-x="1053" 
d="M65 297h-57v172h57v311h362q118 0 203 -54t125.5 -141t40.5 -195q0 -109 -40.5 -196t-125.5 -140.5t-203 -53.5h-362v297zM430 297h-165v-104h147q87 0 134.5 53.5t47.5 143.5t-47.5 143t-134.5 53h-147v-117h165v-172z" />
    <glyph glyph-name="Emacron" unicode="&#x112;" horiz-adv-x="926" 
d="M539 830h-358v148h358v-148zM60 780h599v-194h-399v-112h328v-181h-328v-100h399v-193h-599v780z" />
    <glyph glyph-name="emacron" unicode="&#x113;" horiz-adv-x="926" 
d="M539 830h-358v148h358v-148zM60 780h599v-194h-399v-112h328v-181h-328v-100h399v-193h-599v780z" />
    <glyph glyph-name="Edotaccent" unicode="&#x116;" horiz-adv-x="926" 
d="M263 918q0 39 28.5 67.5t68.5 28.5t68 -28.5t28 -67.5q0 -41 -28 -69.5t-68 -28.5t-68.5 28.5t-28.5 69.5zM60 780h599v-194h-399v-112h328v-181h-328v-100h399v-193h-599v780z" />
    <glyph glyph-name="edotaccent" unicode="&#x117;" horiz-adv-x="926" 
d="M263 918q0 39 28.5 67.5t68.5 28.5t68 -28.5t28 -67.5q0 -41 -28 -69.5t-68 -28.5t-68.5 28.5t-28.5 69.5zM60 780h599v-194h-399v-112h328v-181h-328v-100h399v-193h-599v780z" />
    <glyph glyph-name="Eogonek" unicode="&#x118;" horiz-adv-x="926" 
d="M60 780h599v-194h-399v-112h328v-181h-328v-100h399v-193q-89 -40 -89 -87q0 -20 17 -27.5t43 -2.5l23 -143q-92 -11 -152.5 26.5t-60.5 108.5q0 74 71 125h-451v780z" />
    <glyph glyph-name="eogonek" unicode="&#x119;" horiz-adv-x="926" 
d="M60 780h599v-194h-399v-112h328v-181h-328v-100h399v-193q-89 -40 -89 -87q0 -20 17 -27.5t43 -2.5l23 -143q-92 -11 -152.5 26.5t-60.5 108.5q0 74 71 125h-451v780z" />
    <glyph glyph-name="Ecaron" unicode="&#x11a;" horiz-adv-x="926" 
d="M586 1004l-227 -179l-228 179l85 107l143 -92l141 92zM60 780h599v-194h-399v-112h328v-181h-328v-100h399v-193h-599v780z" />
    <glyph glyph-name="ecaron" unicode="&#x11b;" horiz-adv-x="926" 
d="M586 1004l-227 -179l-228 179l85 107l143 -92l141 92zM60 780h599v-194h-399v-112h328v-181h-328v-100h399v-193h-599v780z" />
    <glyph glyph-name="Gbreve" unicode="&#x11e;" horiz-adv-x="1062" 
d="M332 1044q39 -62 104 -62q64 0 104 62l118 -68q-31 -68 -87.5 -109.5t-134.5 -41.5t-134 41.5t-88 109.5zM415 455h376v-455h-157v73q-28 -42 -81.5 -65t-115.5 -23q-170 0 -292 119t-122 286t122 286t292 119q99 0 186 -44t144 -119l-163 -110q-64 80 -167 80
q-89 0 -150.5 -62t-61.5 -150t61.5 -150t150.5 -62q106 0 167 89v22h-189v166z" />
    <glyph glyph-name="gbreve" unicode="&#x11f;" horiz-adv-x="1062" 
d="M332 1044q39 -62 104 -62q64 0 104 62l118 -68q-31 -68 -87.5 -109.5t-134.5 -41.5t-134 41.5t-88 109.5zM415 455h376v-455h-157v73q-28 -42 -81.5 -65t-115.5 -23q-170 0 -292 119t-122 286t122 286t292 119q99 0 186 -44t144 -119l-163 -110q-64 80 -167 80
q-89 0 -150.5 -62t-61.5 -150t61.5 -150t150.5 -62q106 0 167 89v22h-189v166z" />
    <glyph glyph-name="Gdotaccent" unicode="&#x120;" horiz-adv-x="1062" 
d="M341 918q0 39 28.5 67.5t68.5 28.5t68 -28.5t28 -67.5q0 -41 -28 -69.5t-68 -28.5t-68.5 28.5t-28.5 69.5zM415 455h376v-455h-157v73q-28 -42 -81.5 -65t-115.5 -23q-170 0 -292 119t-122 286t122 286t292 119q99 0 186 -44t144 -119l-163 -110q-64 80 -167 80
q-89 0 -150.5 -62t-61.5 -150t61.5 -150t150.5 -62q106 0 167 89v22h-189v166z" />
    <glyph glyph-name="gdotaccent" unicode="&#x121;" horiz-adv-x="1062" 
d="M341 918q0 39 28.5 67.5t68.5 28.5t68 -28.5t28 -67.5q0 -41 -28 -69.5t-68 -28.5t-68.5 28.5t-28.5 69.5zM415 455h376v-455h-157v73q-28 -42 -81.5 -65t-115.5 -23q-170 0 -292 119t-122 286t122 286t292 119q99 0 186 -44t144 -119l-163 -110q-64 80 -167 80
q-89 0 -150.5 -62t-61.5 -150t61.5 -150t150.5 -62q106 0 167 89v22h-189v166z" />
    <glyph glyph-name="Gcommaaccent" unicode="&#x122;" horiz-adv-x="1062" 
d="M415 455h376v-455h-157v73q-28 -42 -81.5 -65t-115.5 -23q-170 0 -292 119t-122 286t122 286t292 119q99 0 186 -44t144 -119l-163 -110q-64 80 -167 80q-89 0 -150.5 -62t-61.5 -150t61.5 -150t150.5 -62q106 0 167 89v22h-189v166zM360 -260l17 21.5l16.5 22t9.5 12.5
q0 1 -12 12.5t-21 29t-9 39.5q0 36 26.5 62.5t63.5 26.5t62.5 -26t25.5 -70q0 -68 -122 -185z" />
    <glyph glyph-name="gcommaaccent" unicode="&#x123;" horiz-adv-x="1062" 
d="M415 455h376v-455h-157v73q-28 -42 -81.5 -65t-115.5 -23q-170 0 -292 119t-122 286t122 286t292 119q99 0 186 -44t144 -119l-163 -110q-64 80 -167 80q-89 0 -150.5 -62t-61.5 -150t61.5 -150t150.5 -62q106 0 167 89v22h-189v166zM360 -260l17 21.5l16.5 22t9.5 12.5
q0 1 -12 12.5t-21 29t-9 39.5q0 36 26.5 62.5t63.5 26.5t62.5 -26t25.5 -70q0 -68 -122 -185z" />
    <glyph glyph-name="Hbar" unicode="&#x126;" horiz-adv-x="1071" 
d="M779 780v-76h47v-149h-47v-555h-200v290h-318v-290h-199v555h-47v149h47v76h199v-76h318v76h200zM261 477h318v78h-318v-78z" />
    <glyph glyph-name="hbar" unicode="&#x127;" horiz-adv-x="1071" 
d="M779 780v-76h47v-149h-47v-555h-200v290h-318v-290h-199v555h-47v149h47v76h199v-76h318v76h200zM261 477h318v78h-318v-78z" />
    <glyph glyph-name="Itilde" unicode="&#x128;" horiz-adv-x="550" 
d="M-28 840q19 72 93 72q41 0 93 -29q42 -22 76 -22q52 0 76 32h32q-20 -72 -93 -72q-42 0 -93 29q-41 22 -76 22q-53 0 -76 -32h-32zM260 780v-780h-200v780h200z" />
    <glyph glyph-name="itilde" unicode="&#x129;" horiz-adv-x="550" 
d="M-24 840q20 72 93 72q41 0 93 -29q42 -22 76 -22q52 0 76 32h32q-20 -72 -93 -72q-42 0 -93 29q-41 22 -76 22q-53 0 -76 -32h-32zM260 780v-780h-200v780h200z" />
    <glyph glyph-name="Imacron" unicode="&#x12a;" horiz-adv-x="550" 
d="M339 830h-358v148h358v-148zM260 780v-780h-200v780h200z" />
    <glyph glyph-name="imacron" unicode="&#x12b;" horiz-adv-x="550" 
d="M339 830h-358v148h358v-148zM260 780v-780h-200v780h200z" />
    <glyph glyph-name="Ibreve" unicode="&#x12c;" horiz-adv-x="550" 
d="M55 1044q39 -62 104 -62q64 0 104 62l118 -68q-31 -68 -87.5 -109.5t-134.5 -41.5t-134 41.5t-88 109.5zM260 780v-780h-200v780h200z" />
    <glyph glyph-name="ibreve" unicode="&#x12d;" horiz-adv-x="550" 
d="M55 1044q39 -62 104 -62q64 0 104 62l118 -68q-31 -68 -87.5 -109.5t-134.5 -41.5t-134 41.5t-88 109.5zM260 780v-780h-200v780h200z" />
    <glyph glyph-name="Iogonek" unicode="&#x12e;" horiz-adv-x="550" 
d="M260 780v-780h-1q-89 -40 -89 -87q0 -20 17 -27.5t43 -2.5l23 -143q-92 -11 -152.5 26.5t-60.5 108.5q0 74 71 125h-51v780h200z" />
    <glyph glyph-name="iogonek" unicode="&#x12f;" horiz-adv-x="550" 
d="M260 780v-780h-1q-89 -40 -89 -87q0 -20 17 -27.5t43 -2.5l23 -143q-92 -11 -152.5 26.5t-60.5 108.5q0 74 71 125h-51v780h200z" />
    <glyph glyph-name="Idotaccent" unicode="&#x130;" horiz-adv-x="550" 
d="M63 918q0 39 28.5 67.5t68.5 28.5t68 -28.5t28 -67.5q0 -41 -28 -69.5t-68 -28.5t-68.5 28.5t-28.5 69.5zM260 780v-780h-200v780h200z" />
    <glyph glyph-name="dotlessi" unicode="&#x131;" horiz-adv-x="550" 
d="M260 780v-780h-200v780h200z" />
    <glyph glyph-name="IJ" unicode="&#x132;" horiz-adv-x="1215" 
d="M260 780v-780h-200v780h200zM932 780v-491q0 -149 -83.5 -226.5t-213.5 -77.5q-126 0 -212.5 78t-86.5 226v68h200v-65q0 -114 99 -114q48 0 73 24.5t25 89.5v488h199z" />
    <glyph glyph-name="ij" unicode="&#x133;" horiz-adv-x="1215" 
d="M260 780v-780h-200v780h200zM932 780v-491q0 -149 -83.5 -226.5t-213.5 -77.5q-126 0 -212.5 78t-86.5 226v68h200v-65q0 -114 99 -114q48 0 73 24.5t25 89.5v488h199z" />
    <glyph glyph-name="Jcircumflex" unicode="&#x134;" horiz-adv-x="895" 
d="M653 825l-141 93l-143 -93l-85 107l228 179l227 -179zM612 780v-491q0 -149 -83.5 -226.5t-213.5 -77.5q-126 0 -212.5 78t-86.5 226v68h200v-65q0 -114 99 -114q48 0 73 24.5t25 89.5v488h199z" />
    <glyph glyph-name="jcircumflex" unicode="&#x135;" horiz-adv-x="895" 
d="M653 825l-141 93l-143 -93l-85 107l228 179l227 -179zM612 780v-491q0 -149 -83.5 -226.5t-213.5 -77.5q-126 0 -212.5 78t-86.5 226v68h200v-65q0 -114 99 -114q48 0 73 24.5t25 89.5v488h199z" />
    <glyph glyph-name="Kcommaaccent" unicode="&#x136;" horiz-adv-x="998" 
d="M60 780h200v-269l242 269h258l-308 -335l324 -445h-248l-215 294l-53 -59v-235h-200v780zM327 -260l17 21.5l16.5 22t9.5 12.5q0 1 -12 12.5t-21 29t-9 39.5q0 36 26.5 62.5t63.5 26.5t62.5 -26t25.5 -70q0 -68 -122 -185z" />
    <glyph glyph-name="kcommaaccent" unicode="&#x137;" horiz-adv-x="998" 
d="M60 780h200v-269l242 269h258l-308 -335l324 -445h-248l-215 294l-53 -59v-235h-200v780zM327 -260l17 21.5l16.5 22t9.5 12.5q0 1 -12 12.5t-21 29t-9 39.5q0 36 26.5 62.5t63.5 26.5t62.5 -26t25.5 -70q0 -68 -122 -185z" />
    <glyph glyph-name="Lacute" unicode="&#x139;" horiz-adv-x="876" 
d="M-19 934l260 185l97 -168l-290 -133zM60 780h199v-587h374v-193h-573v780z" />
    <glyph glyph-name="lacute" unicode="&#x13a;" horiz-adv-x="876" 
d="M-19 934l260 185l97 -168l-290 -133zM60 780h199v-587h374v-193h-573v780z" />
    <glyph glyph-name="Lcommaaccent" unicode="&#x13b;" horiz-adv-x="876" 
d="M60 780h199v-587h374v-193h-573v780zM254 -260l17 21.5l16.5 22t9.5 12.5q0 1 -12 12.5t-21 29t-9 39.5q0 36 26.5 62.5t63.5 26.5t62.5 -26t25.5 -70q0 -68 -122 -185z" />
    <glyph glyph-name="lcommaaccent" unicode="&#x13c;" horiz-adv-x="876" 
d="M60 780h199v-587h374v-193h-573v780zM254 -260l17 21.5l16.5 22t9.5 12.5q0 1 -12 12.5t-21 29t-9 39.5q0 36 26.5 62.5t63.5 26.5t62.5 -26t25.5 -70q0 -68 -122 -185z" />
    <glyph glyph-name="Lcaron" unicode="&#x13d;" horiz-adv-x="876" 
d="M297 573l17 21.5l16.5 22t9.5 12.5q0 1 -12 12.5t-21 29t-9 39.5q0 36 26.5 62.5t63.5 26.5t62.5 -26t25.5 -70q0 -68 -122 -185zM60 780h199v-587h374v-193h-573v780z" />
    <glyph glyph-name="lcaron" unicode="&#x13e;" horiz-adv-x="876" 
d="M297 573l17 21.5l16.5 22t9.5 12.5q0 1 -12 12.5t-21 29t-9 39.5q0 36 26.5 62.5t63.5 26.5t62.5 -26t25.5 -70q0 -68 -122 -185zM60 780h199v-587h374v-193h-573v780z" />
    <glyph glyph-name="Ldot" unicode="&#x13f;" horiz-adv-x="876" 
d="M60 780h199v-587h374v-193h-573v780zM347 419q0 39 28.5 67.5t68.5 28.5t68 -28.5t28 -67.5q0 -41 -28 -69.5t-68 -28.5t-68.5 28.5t-28.5 69.5z" />
    <glyph glyph-name="ldot" unicode="&#x140;" horiz-adv-x="876" 
d="M60 780h199v-587h374v-193h-573v780zM347 419q0 39 28.5 67.5t68.5 28.5t68 -28.5t28 -67.5q0 -41 -28 -69.5t-68 -28.5t-68.5 28.5t-28.5 69.5z" />
    <glyph glyph-name="Lslash" unicode="&#x141;" horiz-adv-x="884" 
d="M267 780v-244l184 84v-206l-184 -84v-137h374v-193h-573v240l-61 -28v206l61 28v334h199z" />
    <glyph glyph-name="lslash" unicode="&#x142;" horiz-adv-x="884" 
d="M267 780v-244l184 84v-206l-184 -84v-137h374v-193h-573v240l-61 -28v206l61 28v334h199z" />
    <glyph glyph-name="Nacute" unicode="&#x143;" horiz-adv-x="1067" 
d="M241 934l260 185l97 -168l-290 -133zM60 0v780h170l348 -436v436h199v-780h-169l-348 435v-435h-200z" />
    <glyph glyph-name="nacute" unicode="&#x144;" horiz-adv-x="1067" 
d="M241 934l260 185l97 -168l-290 -133zM60 0v780h170l348 -436v436h199v-780h-169l-348 435v-435h-200z" />
    <glyph glyph-name="Ncommaaccent" unicode="&#x145;" horiz-adv-x="1067" 
d="M60 0v780h170l348 -436v436h199v-780h-169l-348 435v-435h-200zM329 -260l17 21.5l16.5 22t9.5 12.5q0 1 -12 12.5t-21 29t-9 39.5q0 36 26.5 62.5t63.5 26.5t62.5 -26t25.5 -70q0 -68 -122 -185z" />
    <glyph glyph-name="ncommaaccent" unicode="&#x146;" horiz-adv-x="1067" 
d="M60 0v780h170l348 -436v436h199v-780h-169l-348 435v-435h-200zM329 -260l17 21.5l16.5 22t9.5 12.5q0 1 -12 12.5t-21 29t-9 39.5q0 36 26.5 62.5t63.5 26.5t62.5 -26t25.5 -70q0 -68 -122 -185z" />
    <glyph glyph-name="Ncaron" unicode="&#x147;" horiz-adv-x="1067" 
d="M646 1004l-227 -179l-228 179l85 107l143 -92l141 92zM60 0v780h170l348 -436v436h199v-780h-169l-348 435v-435h-200z" />
    <glyph glyph-name="ncaron" unicode="&#x148;" horiz-adv-x="1067" 
d="M646 1004l-227 -179l-228 179l85 107l143 -92l141 92zM60 0v780h170l348 -436v436h199v-780h-169l-348 435v-435h-200z" />
    <glyph glyph-name="Eng" unicode="&#x14a;" horiz-adv-x="1067" 
d="M60 0v780h170l348 -436v436h199v-790q0 -75 -25.5 -135t-68 -96t-93.5 -54.5t-106 -18.5q-99 0 -172 56.5t-96 141.5l190 61q6 -33 32.5 -49.5t56.5 -16.5q33 0 58 24.5t25 89.5v44l-318 398v-435h-200z" />
    <glyph glyph-name="eng" unicode="&#x14b;" horiz-adv-x="1067" 
d="M60 0v780h170l348 -436v436h199v-790q0 -75 -25.5 -135t-68 -96t-93.5 -54.5t-106 -18.5q-99 0 -172 56.5t-96 141.5l190 61q6 -33 32.5 -49.5t56.5 -16.5q33 0 58 24.5t25 89.5v44l-318 398v-435h-200z" />
    <glyph glyph-name="Omacron" unicode="&#x14c;" horiz-adv-x="1104" 
d="M617 830h-358v148h358v-148zM23 390q0 167 122.5 286t291.5 119q171 0 292.5 -119t121.5 -286t-121.5 -286t-292.5 -119q-169 0 -291.5 119t-122.5 286zM225 390q0 -88 62 -150t150 -62q90 0 151 61.5t61 150.5t-61 150.5t-151 61.5q-88 0 -150 -62t-62 -150z" />
    <glyph glyph-name="omacron" unicode="&#x14d;" horiz-adv-x="1104" 
d="M617 830h-358v148h358v-148zM23 390q0 167 122.5 286t291.5 119q171 0 292.5 -119t121.5 -286t-121.5 -286t-292.5 -119q-169 0 -291.5 119t-122.5 286zM225 390q0 -88 62 -150t150 -62q90 0 151 61.5t61 150.5t-61 150.5t-151 61.5q-88 0 -150 -62t-62 -150z" />
    <glyph glyph-name="Obreve" unicode="&#x14e;" horiz-adv-x="1104" 
d="M333 1044q39 -62 104 -62q64 0 104 62l118 -68q-31 -68 -87.5 -109.5t-134.5 -41.5t-134 41.5t-88 109.5zM23 390q0 167 122.5 286t291.5 119q171 0 292.5 -119t121.5 -286t-121.5 -286t-292.5 -119q-169 0 -291.5 119t-122.5 286zM225 390q0 -88 62 -150t150 -62
q90 0 151 61.5t61 150.5t-61 150.5t-151 61.5q-88 0 -150 -62t-62 -150z" />
    <glyph glyph-name="obreve" unicode="&#x14f;" horiz-adv-x="1104" 
d="M333 1044q39 -62 104 -62q64 0 104 62l118 -68q-31 -68 -87.5 -109.5t-134.5 -41.5t-134 41.5t-88 109.5zM23 390q0 167 122.5 286t291.5 119q171 0 292.5 -119t121.5 -286t-121.5 -286t-292.5 -119q-169 0 -291.5 119t-122.5 286zM225 390q0 -88 62 -150t150 -62
q90 0 151 61.5t61 150.5t-61 150.5t-151 61.5q-88 0 -150 -62t-62 -150z" />
    <glyph glyph-name="Ohungarumlaut" unicode="&#x150;" horiz-adv-x="1104" 
d="M473 966l162 205l137 -137l-204 -164zM203 966l164 204l137 -137l-205 -163zM23 390q0 167 122.5 286t291.5 119q171 0 292.5 -119t121.5 -286t-121.5 -286t-292.5 -119q-169 0 -291.5 119t-122.5 286zM225 390q0 -88 62 -150t150 -62q90 0 151 61.5t61 150.5t-61 150.5
t-151 61.5q-88 0 -150 -62t-62 -150z" />
    <glyph glyph-name="ohungarumlaut" unicode="&#x151;" horiz-adv-x="1104" 
d="M473 966l162 205l137 -137l-204 -164zM203 966l164 204l137 -137l-205 -163zM23 390q0 167 122.5 286t291.5 119q171 0 292.5 -119t121.5 -286t-121.5 -286t-292.5 -119q-169 0 -291.5 119t-122.5 286zM225 390q0 -88 62 -150t150 -62q90 0 151 61.5t61 150.5t-61 150.5
t-151 61.5q-88 0 -150 -62t-62 -150z" />
    <glyph glyph-name="OE" unicode="&#x152;" horiz-adv-x="1404" 
d="M463 0q-201 0 -320 113t-119 277q0 79 30 149.5t85 124t139 85t185 31.5h675v-194h-399v-112h328v-181h-328v-100h399v-193h-675zM226 390q0 -88 61 -142.5t176 -54.5h76v393h-76q-115 0 -176 -54t-61 -142z" />
    <glyph glyph-name="oe" unicode="&#x153;" horiz-adv-x="1404" 
d="M463 0q-201 0 -320 113t-119 277q0 79 30 149.5t85 124t139 85t185 31.5h675v-194h-399v-112h328v-181h-328v-100h399v-193h-675zM226 390q0 -88 61 -142.5t176 -54.5h76v393h-76q-115 0 -176 -54t-61 -142z" />
    <glyph glyph-name="Racute" unicode="&#x154;" horiz-adv-x="996" 
d="M225 934l260 185l97 -168l-290 -133zM441 780q143 0 217.5 -80.5t74.5 -204.5q0 -85 -39 -154.5t-115 -104.5l169 -236h-239l-148 209h-102v-209h-199v780h381zM259 598v-208h171q56 0 83 29t27 74q0 105 -110 105h-171z" />
    <glyph glyph-name="racute" unicode="&#x155;" horiz-adv-x="996" 
d="M225 934l260 185l97 -168l-290 -133zM441 780q143 0 217.5 -80.5t74.5 -204.5q0 -85 -39 -154.5t-115 -104.5l169 -236h-239l-148 209h-102v-209h-199v780h381zM259 598v-208h171q56 0 83 29t27 74q0 105 -110 105h-171z" />
    <glyph glyph-name="Rcommaaccent" unicode="&#x156;" horiz-adv-x="996" 
d="M441 780q143 0 217.5 -80.5t74.5 -204.5q0 -85 -39 -154.5t-115 -104.5l169 -236h-239l-148 209h-102v-209h-199v780h381zM259 598v-208h171q56 0 83 29t27 74q0 105 -110 105h-171zM312 -260l17 21.5l16.5 22t9.5 12.5q0 1 -12 12.5t-21 29t-9 39.5q0 36 26.5 62.5
t63.5 26.5t62.5 -26t25.5 -70q0 -68 -122 -185z" />
    <glyph glyph-name="rcommaaccent" unicode="&#x157;" horiz-adv-x="996" 
d="M441 780q143 0 217.5 -80.5t74.5 -204.5q0 -85 -39 -154.5t-115 -104.5l169 -236h-239l-148 209h-102v-209h-199v780h381zM259 598v-208h171q56 0 83 29t27 74q0 105 -110 105h-171zM312 -260l17 21.5l16.5 22t9.5 12.5q0 1 -12 12.5t-21 29t-9 39.5q0 36 26.5 62.5
t63.5 26.5t62.5 -26t25.5 -70q0 -68 -122 -185z" />
    <glyph glyph-name="Rcaron" unicode="&#x158;" horiz-adv-x="996" 
d="M630 1004l-227 -179l-228 179l85 107l143 -92l141 92zM441 780q143 0 217.5 -80.5t74.5 -204.5q0 -85 -39 -154.5t-115 -104.5l169 -236h-239l-148 209h-102v-209h-199v780h381zM259 598v-208h171q56 0 83 29t27 74q0 105 -110 105h-171z" />
    <glyph glyph-name="rcaron" unicode="&#x159;" horiz-adv-x="996" 
d="M630 1004l-227 -179l-228 179l85 107l143 -92l141 92zM441 780q143 0 217.5 -80.5t74.5 -204.5q0 -85 -39 -154.5t-115 -104.5l169 -236h-239l-148 209h-102v-209h-199v780h381zM259 598v-208h171q56 0 83 29t27 74q0 105 -110 105h-171z" />
    <glyph glyph-name="Sacute" unicode="&#x15a;" horiz-adv-x="929" 
d="M162 934l260 185l97 -168l-290 -133zM224 234v-5q0 -26 34.5 -48.5t97.5 -22.5q52 0 75.5 14t23.5 34q0 24 -29.5 42t-103.5 43q-47 16 -78.5 28t-75 35.5t-69.5 49t-45 64.5t-19 85q0 110 85 176t220 66q139 0 229 -69t90 -183v-11h-195v7q0 32 -31.5 57.5t-88.5 25.5
q-47 0 -71 -15.5t-24 -37.5t27 -37.5t102 -41.5l51 -18.5t53.5 -22t56.5 -29t49 -36t43.5 -45.5t27 -55t11.5 -67q0 -111 -86 -171.5t-224 -60.5q-145 0 -238 64t-93 176v9h195z" />
    <glyph glyph-name="sacute" unicode="&#x15b;" horiz-adv-x="929" 
d="M162 934l260 185l97 -168l-290 -133zM224 234v-5q0 -26 34.5 -48.5t97.5 -22.5q52 0 75.5 14t23.5 34q0 24 -29.5 42t-103.5 43q-47 16 -78.5 28t-75 35.5t-69.5 49t-45 64.5t-19 85q0 110 85 176t220 66q139 0 229 -69t90 -183v-11h-195v7q0 32 -31.5 57.5t-88.5 25.5
q-47 0 -71 -15.5t-24 -37.5t27 -37.5t102 -41.5l51 -18.5t53.5 -22t56.5 -29t49 -36t43.5 -45.5t27 -55t11.5 -67q0 -111 -86 -171.5t-224 -60.5q-145 0 -238 64t-93 176v9h195z" />
    <glyph glyph-name="Scircumflex" unicode="&#x15c;" horiz-adv-x="929" 
d="M481 825l-141 93l-143 -93l-85 107l228 179l227 -179zM224 234v-5q0 -26 34.5 -48.5t97.5 -22.5q52 0 75.5 14t23.5 34q0 24 -29.5 42t-103.5 43q-47 16 -78.5 28t-75 35.5t-69.5 49t-45 64.5t-19 85q0 110 85 176t220 66q139 0 229 -69t90 -183v-11h-195v7
q0 32 -31.5 57.5t-88.5 25.5q-47 0 -71 -15.5t-24 -37.5t27 -37.5t102 -41.5l51 -18.5t53.5 -22t56.5 -29t49 -36t43.5 -45.5t27 -55t11.5 -67q0 -111 -86 -171.5t-224 -60.5q-145 0 -238 64t-93 176v9h195z" />
    <glyph glyph-name="scircumflex" unicode="&#x15d;" horiz-adv-x="929" 
d="M481 825l-141 93l-143 -93l-85 107l228 179l227 -179zM224 234v-5q0 -26 34.5 -48.5t97.5 -22.5q52 0 75.5 14t23.5 34q0 24 -29.5 42t-103.5 43q-47 16 -78.5 28t-75 35.5t-69.5 49t-45 64.5t-19 85q0 110 85 176t220 66q139 0 229 -69t90 -183v-11h-195v7
q0 32 -31.5 57.5t-88.5 25.5q-47 0 -71 -15.5t-24 -37.5t27 -37.5t102 -41.5l51 -18.5t53.5 -22t56.5 -29t49 -36t43.5 -45.5t27 -55t11.5 -67q0 -111 -86 -171.5t-224 -60.5q-145 0 -238 64t-93 176v9h195z" />
    <glyph glyph-name="Scedilla" unicode="&#x15e;" horiz-adv-x="929" 
d="M224 234v-5q0 -26 34.5 -48.5t97.5 -22.5q52 0 75.5 14t23.5 34q0 24 -29.5 42t-103.5 43q-47 16 -78.5 28t-75 35.5t-69.5 49t-45 64.5t-19 85q0 110 85 176t220 66q139 0 229 -69t90 -183v-11h-195v7q0 32 -31.5 57.5t-88.5 25.5q-47 0 -71 -15.5t-24 -37.5t27 -37.5
t102 -41.5l51 -18.5t53.5 -22t56.5 -29t49 -36t43.5 -45.5t27 -55t11.5 -67q0 -100 -71 -159.5t-188 -69.5l-8 -43q42 -13 61.5 -44.5t19.5 -70.5q0 -56 -36 -92.5t-101 -36.5q-30 0 -65.5 8t-55.5 16l-21 8l52 120q50 -25 82 -25q37 0 37 23q0 11 -9 19.5t-32 0.5l-48 43
l28 73q-128 10 -207 72.5t-79 165.5v9h195z" />
    <glyph glyph-name="scedilla" unicode="&#x15f;" horiz-adv-x="929" 
d="M224 234v-5q0 -26 34.5 -48.5t97.5 -22.5q52 0 75.5 14t23.5 34q0 24 -29.5 42t-103.5 43q-47 16 -78.5 28t-75 35.5t-69.5 49t-45 64.5t-19 85q0 110 85 176t220 66q139 0 229 -69t90 -183v-11h-195v7q0 32 -31.5 57.5t-88.5 25.5q-47 0 -71 -15.5t-24 -37.5t27 -37.5
t102 -41.5l51 -18.5t53.5 -22t56.5 -29t49 -36t43.5 -45.5t27 -55t11.5 -67q0 -100 -71 -159.5t-188 -69.5l-8 -43q42 -13 61.5 -44.5t19.5 -70.5q0 -56 -36 -92.5t-101 -36.5q-30 0 -65.5 8t-55.5 16l-21 8l52 120q50 -25 82 -25q37 0 37 23q0 11 -9 19.5t-32 0.5l-48 43
l28 73q-128 10 -207 72.5t-79 165.5v9h195z" />
    <glyph glyph-name="Scaron" unicode="&#x160;" horiz-adv-x="929" 
d="M568 1004l-227 -179l-228 179l85 107l143 -92l141 92zM224 234v-5q0 -26 34.5 -48.5t97.5 -22.5q52 0 75.5 14t23.5 34q0 24 -29.5 42t-103.5 43q-47 16 -78.5 28t-75 35.5t-69.5 49t-45 64.5t-19 85q0 110 85 176t220 66q139 0 229 -69t90 -183v-11h-195v7
q0 32 -31.5 57.5t-88.5 25.5q-47 0 -71 -15.5t-24 -37.5t27 -37.5t102 -41.5l51 -18.5t53.5 -22t56.5 -29t49 -36t43.5 -45.5t27 -55t11.5 -67q0 -111 -86 -171.5t-224 -60.5q-145 0 -238 64t-93 176v9h195z" />
    <glyph glyph-name="scaron" unicode="&#x161;" horiz-adv-x="929" 
d="M568 1004l-227 -179l-228 179l85 107l143 -92l141 92zM224 234v-5q0 -26 34.5 -48.5t97.5 -22.5q52 0 75.5 14t23.5 34q0 24 -29.5 42t-103.5 43q-47 16 -78.5 28t-75 35.5t-69.5 49t-45 64.5t-19 85q0 110 85 176t220 66q139 0 229 -69t90 -183v-11h-195v7
q0 32 -31.5 57.5t-88.5 25.5q-47 0 -71 -15.5t-24 -37.5t27 -37.5t102 -41.5l51 -18.5t53.5 -22t56.5 -29t49 -36t43.5 -45.5t27 -55t11.5 -67q0 -111 -86 -171.5t-224 -60.5q-145 0 -238 64t-93 176v9h195z" />
    <glyph glyph-name="uni0162" unicode="&#x162;" horiz-adv-x="940" 
d="M12 780h686v-194h-243v-586h-200v586h-243v194zM263 -260l17 21.5l16.5 22t9.5 12.5q0 1 -12 12.5t-21 29t-9 39.5q0 36 26.5 62.5t63.5 26.5t62.5 -26t25.5 -70q0 -68 -122 -185z" />
    <glyph glyph-name="uni0163" unicode="&#x163;" horiz-adv-x="940" 
d="M12 780h686v-194h-243v-586h-200v586h-243v194zM263 -260l17 21.5l16.5 22t9.5 12.5q0 1 -12 12.5t-21 29t-9 39.5q0 36 26.5 62.5t63.5 26.5t62.5 -26t25.5 -70q0 -68 -122 -185z" />
    <glyph glyph-name="Tcaron" unicode="&#x164;" horiz-adv-x="940" 
d="M581 1004l-227 -179l-228 179l85 107l143 -92l141 92zM12 780h686v-194h-243v-586h-200v586h-243v194z" />
    <glyph glyph-name="tcaron" unicode="&#x165;" horiz-adv-x="940" 
d="M581 1004l-227 -179l-228 179l85 107l143 -92l141 92zM12 780h686v-194h-243v-586h-200v586h-243v194z" />
    <glyph glyph-name="Tbar" unicode="&#x166;" horiz-adv-x="949" 
d="M17 780h686v-194h-243v-189h121v-148h-121v-249h-200v249h-122v148h122v189h-243v194z" />
    <glyph glyph-name="tbar" unicode="&#x167;" horiz-adv-x="949" 
d="M17 780h686v-194h-243v-189h121v-148h-121v-249h-200v249h-122v148h122v189h-243v194z" />
    <glyph glyph-name="Utilde" unicode="&#x168;" horiz-adv-x="1045" 
d="M225 840q19 72 93 72q41 0 93 -29q42 -22 76 -22q52 0 76 32h32q-19 -72 -93 -72q-42 0 -93 29q-41 22 -76 22q-53 0 -76 -32h-32zM766 780v-439q0 -156 -95 -256t-264 -100q-170 0 -264 99.5t-94 256.5v439h200v-427q0 -85 40 -130t118 -45t119 45t41 130v427h199z" />
    <glyph glyph-name="utilde" unicode="&#x169;" horiz-adv-x="1045" 
d="M228 840q20 72 93 72q41 0 93 -29q42 -22 76 -22q52 0 76 32h32q-20 -72 -93 -72q-42 0 -93 29q-41 22 -76 22q-53 0 -76 -32h-32zM766 780v-439q0 -156 -95 -256t-264 -100q-170 0 -264 99.5t-94 256.5v439h200v-427q0 -85 40 -130t118 -45t119 45t41 130v427h199z" />
    <glyph glyph-name="Umacron" unicode="&#x16a;" horiz-adv-x="1045" 
d="M587 830h-358v148h358v-148zM766 780v-439q0 -156 -95 -256t-264 -100q-170 0 -264 99.5t-94 256.5v439h200v-427q0 -85 40 -130t118 -45t119 45t41 130v427h199z" />
    <glyph glyph-name="umacron" unicode="&#x16b;" horiz-adv-x="1045" 
d="M587 830h-358v148h358v-148zM766 780v-439q0 -156 -95 -256t-264 -100q-170 0 -264 99.5t-94 256.5v439h200v-427q0 -85 40 -130t118 -45t119 45t41 130v427h199z" />
    <glyph glyph-name="Ubreve" unicode="&#x16c;" horiz-adv-x="1045" 
d="M303 1044q39 -62 104 -62q64 0 104 62l118 -68q-31 -68 -87.5 -109.5t-134.5 -41.5t-134 41.5t-88 109.5zM766 780v-439q0 -156 -95 -256t-264 -100q-170 0 -264 99.5t-94 256.5v439h200v-427q0 -85 40 -130t118 -45t119 45t41 130v427h199z" />
    <glyph glyph-name="ubreve" unicode="&#x16d;" horiz-adv-x="1045" 
d="M303 1044q39 -62 104 -62q64 0 104 62l118 -68q-31 -68 -87.5 -109.5t-134.5 -41.5t-134 41.5t-88 109.5zM766 780v-439q0 -156 -95 -256t-264 -100q-170 0 -264 99.5t-94 256.5v439h200v-427q0 -85 40 -130t118 -45t119 45t41 130v427h199z" />
    <glyph glyph-name="Uring" unicode="&#x16e;" horiz-adv-x="1045" 
d="M241 970q0 69 48.5 118t116.5 49t117.5 -49.5t49.5 -117.5t-49.5 -116.5t-117.5 -48.5t-116.5 48.5t-48.5 116.5zM358 970q0 -20 14 -34t34 -14t34 14t14 34t-14 34t-34 14t-34 -14t-14 -34zM766 780v-439q0 -156 -95 -256t-264 -100q-170 0 -264 99.5t-94 256.5v439h200
v-427q0 -85 40 -130t118 -45t119 45t41 130v427h199z" />
    <glyph glyph-name="uring" unicode="&#x16f;" horiz-adv-x="1045" 
d="M241 970q0 69 48.5 118t116.5 49t117.5 -49.5t49.5 -117.5t-49.5 -116.5t-117.5 -48.5t-116.5 48.5t-48.5 116.5zM358 970q0 -20 14 -34t34 -14t34 14t14 34t-14 34t-34 14t-34 -14t-14 -34zM766 780v-439q0 -156 -95 -256t-264 -100q-170 0 -264 99.5t-94 256.5v439h200
v-427q0 -85 40 -130t118 -45t119 45t41 130v427h199z" />
    <glyph glyph-name="Uhungarumlaut" unicode="&#x170;" horiz-adv-x="1045" 
d="M443 966l162 205l137 -137l-204 -164zM173 966l164 204l137 -137l-205 -163zM766 780v-439q0 -156 -95 -256t-264 -100q-170 0 -264 99.5t-94 256.5v439h200v-427q0 -85 40 -130t118 -45t119 45t41 130v427h199z" />
    <glyph glyph-name="uhungarumlaut" unicode="&#x171;" horiz-adv-x="1045" 
d="M443 966l162 205l137 -137l-204 -164zM173 966l164 204l137 -137l-205 -163zM766 780v-439q0 -156 -95 -256t-264 -100q-170 0 -264 99.5t-94 256.5v439h200v-427q0 -85 40 -130t118 -45t119 45t41 130v427h199z" />
    <glyph glyph-name="Uogonek" unicode="&#x172;" horiz-adv-x="1045" 
d="M766 780v-439q0 -132 -69.5 -226.5t-196.5 -120.5q-76 -37 -76 -81q0 -20 17 -27.5t43 -2.5l23 -143q-92 -11 -152.5 26.5t-60.5 108.5q0 65 56 113q-144 17 -222.5 114t-78.5 239v439h200v-427q0 -85 40 -130t118 -45t119 45t41 130v427h199z" />
    <glyph glyph-name="uogonek" unicode="&#x173;" horiz-adv-x="1045" 
d="M766 780v-439q0 -132 -69.5 -226.5t-196.5 -120.5q-76 -37 -76 -81q0 -20 17 -27.5t43 -2.5l23 -143q-92 -11 -152.5 26.5t-60.5 108.5q0 65 56 113q-144 17 -222.5 114t-78.5 239v439h200v-427q0 -85 40 -130t118 -45t119 45t41 130v427h199z" />
    <glyph glyph-name="Wcircumflex" unicode="&#x174;" horiz-adv-x="1377" 
d="M714 825l-141 93l-143 -93l-85 107l228 179l227 -179zM218 0l-219 780h213l126 -465l146 465h178l146 -464l126 464h214l-219 -780h-207l-149 453l-148 -453h-207z" />
    <glyph glyph-name="wcircumflex" unicode="&#x175;" horiz-adv-x="1377" 
d="M714 825l-141 93l-143 -93l-85 107l228 179l227 -179zM218 0l-219 780h213l126 -465l146 465h178l146 -464l126 464h214l-219 -780h-207l-149 453l-148 -453h-207z" />
    <glyph glyph-name="ycircumflex" unicode="&#x177;" horiz-adv-x="1046" 
d="M548 825l-141 93l-143 -93l-85 107l228 179l227 -179zM407 497l173 283h236l-309 -494v-286h-199v286l-308 494h235z" />
    <glyph glyph-name="Ydieresis" unicode="&#x178;" horiz-adv-x="1046" 
d="M185 928q0 39 28.5 67.5t68.5 28.5t68 -28.5t28 -67.5q0 -41 -28 -69.5t-68 -28.5t-68.5 28.5t-28.5 69.5zM437 928q0 39 28.5 67.5t68.5 28.5t68 -28.5t28 -67.5q0 -41 -28 -69.5t-68 -28.5t-68.5 28.5t-28.5 69.5zM407 497l173 283h236l-309 -494v-286h-199v286
l-308 494h235z" />
    <glyph glyph-name="Zacute" unicode="&#x179;" horiz-adv-x="959" 
d="M184 934l260 185l97 -168l-290 -133zM43 780h649v-146l-364 -441h365v-193h-662v146l363 440h-351v194z" />
    <glyph glyph-name="zacute" unicode="&#x17a;" horiz-adv-x="959" 
d="M184 934l260 185l97 -168l-290 -133zM43 780h649v-146l-364 -441h365v-193h-662v146l363 440h-351v194z" />
    <glyph glyph-name="Zdotaccent" unicode="&#x17b;" horiz-adv-x="959" 
d="M266 918q0 39 28.5 67.5t68.5 28.5t68 -28.5t28 -67.5q0 -41 -28 -69.5t-68 -28.5t-68.5 28.5t-28.5 69.5zM43 780h649v-146l-364 -441h365v-193h-662v146l363 440h-351v194z" />
    <glyph glyph-name="zdotaccent" unicode="&#x17c;" horiz-adv-x="959" 
d="M266 918q0 39 28.5 67.5t68.5 28.5t68 -28.5t28 -67.5q0 -41 -28 -69.5t-68 -28.5t-68.5 28.5t-28.5 69.5zM43 780h649v-146l-364 -441h365v-193h-662v146l363 440h-351v194z" />
    <glyph glyph-name="Zcaron" unicode="&#x17d;" horiz-adv-x="959" 
d="M589 1004l-227 -179l-228 179l85 107l143 -92l141 92zM43 780h649v-146l-364 -441h365v-193h-662v146l363 440h-351v194z" />
    <glyph glyph-name="zcaron" unicode="&#x17e;" horiz-adv-x="959" 
d="M589 1004l-227 -179l-228 179l85 107l143 -92l141 92zM43 780h649v-146l-364 -441h365v-193h-662v146l363 440h-351v194z" />
    <glyph glyph-name="Ohorn" unicode="&#x1a0;" horiz-adv-x="1104" 
d="M674 721q82 -56 129.5 -143t47.5 -188q0 -167 -121.5 -286t-292.5 -119q-169 0 -291.5 119t-122.5 286t122.5 286t291.5 119q119 0 223 -64l15 167l75 -8l-29 -167zM437 178q90 0 151 61.5t61 150.5t-61 150.5t-151 61.5q-88 0 -150 -62t-62 -150t62 -150t150 -62z" />
    <glyph glyph-name="ohorn" unicode="&#x1a1;" horiz-adv-x="1104" 
d="M672 723q83 -56 131 -143.5t48 -189.5q0 -167 -121.5 -286t-292.5 -119q-169 0 -291.5 119t-122.5 286t122.5 286t291.5 119q112 0 208 -55l14 159l75 -8l-29 -167zM437 178q90 0 151 61.5t61 150.5t-61 150.5t-151 61.5q-88 0 -150 -62t-62 -150t62 -150t150 -62z" />
    <glyph glyph-name="Uhorn" unicode="&#x1af;" horiz-adv-x="1045" 
d="M850 723l-62 -2l16 177l75 -8zM766 780v-439q0 -156 -95 -256t-264 -100q-170 0 -264 99.5t-94 256.5v439h200v-427q0 -85 40 -130t118 -45t119 45t41 130v427h199z" />
    <glyph glyph-name="uhorn" unicode="&#x1b0;" horiz-adv-x="1045" 
d="M854 705l-62 -2l16 177l75 -8zM766 780v-439q0 -156 -95 -256t-264 -100q-170 0 -264 99.5t-94 256.5v439h200v-427q0 -85 40 -130t118 -45t119 45t41 130v427h199z" />
    <glyph glyph-name="AEacute" unicode="&#x1fc;" horiz-adv-x="1511" 
d="M645 934l260 185l97 -168l-290 -133zM645 114h-308l-90 -114h-257l627 780h627v-194h-400v-112h329v-181h-329v-100h400v-193h-599v114zM645 295v210l-166 -210h166z" />
    <glyph glyph-name="aeacute" unicode="&#x1fd;" horiz-adv-x="1511" 
d="M645 934l260 185l97 -168l-290 -133zM645 114h-308l-90 -114h-257l627 780h627v-194h-400v-112h329v-181h-329v-100h400v-193h-599v114zM645 295v210l-166 -210h166z" />
    <glyph glyph-name="Oslashacute" unicode="&#x1fe;" horiz-adv-x="1103" 
d="M259 934l260 185l97 -168l-290 -133zM23 390q0 167 122 286t292 119q104 0 200 -51l29 36h169l-94 -117q110 -116 110 -273q0 -167 -122 -286t-292 -119q-106 0 -200 51l-29 -36h-169l93 116q-109 115 -109 274zM225 390q0 -65 34 -116l253 314q-37 14 -75 14
q-89 0 -150.5 -62t-61.5 -150zM649 390q0 63 -34 116l-254 -315q35 -13 76 -13q89 0 150.5 61.5t61.5 150.5z" />
    <glyph glyph-name="oslashacute" unicode="&#x1ff;" horiz-adv-x="1103" 
d="M259 934l260 185l97 -168l-290 -133zM23 390q0 167 122 286t292 119q104 0 200 -51l29 36h169l-94 -117q110 -116 110 -273q0 -167 -122 -286t-292 -119q-106 0 -200 51l-29 -36h-169l93 116q-109 115 -109 274zM225 390q0 -65 34 -116l253 314q-37 14 -75 14
q-89 0 -150.5 -62t-61.5 -150zM649 390q0 63 -34 116l-254 -315q35 -13 76 -13q89 0 150.5 61.5t61.5 150.5z" />
    <glyph glyph-name="Scommaaccent" unicode="&#x218;" horiz-adv-x="929" 
d="M224 234v-5q0 -26 34.5 -48.5t97.5 -22.5q52 0 75.5 14t23.5 34q0 24 -29.5 42t-103.5 43q-47 16 -78.5 28t-75 35.5t-69.5 49t-45 64.5t-19 85q0 110 85 176t220 66q139 0 229 -69t90 -183v-11h-195v7q0 32 -31.5 57.5t-88.5 25.5q-47 0 -71 -15.5t-24 -37.5t27 -37.5
t102 -41.5l51 -18.5t53.5 -22t56.5 -29t49 -36t43.5 -45.5t27 -55t11.5 -67q0 -111 -86 -171.5t-224 -60.5q-145 0 -238 64t-93 176v9h195zM268 -260l17 21.5l16.5 22t9.5 12.5q0 1 -12 12.5t-21 29t-9 39.5q0 36 26.5 62.5t63.5 26.5t62.5 -26t25.5 -70q0 -68 -122 -185z
" />
    <glyph glyph-name="scommaaccent" unicode="&#x219;" horiz-adv-x="929" 
d="M224 234v-5q0 -26 34.5 -48.5t97.5 -22.5q52 0 75.5 14t23.5 34q0 24 -29.5 42t-103.5 43q-47 16 -78.5 28t-75 35.5t-69.5 49t-45 64.5t-19 85q0 110 85 176t220 66q139 0 229 -69t90 -183v-11h-195v7q0 32 -31.5 57.5t-88.5 25.5q-47 0 -71 -15.5t-24 -37.5t27 -37.5
t102 -41.5l51 -18.5t53.5 -22t56.5 -29t49 -36t43.5 -45.5t27 -55t11.5 -67q0 -111 -86 -171.5t-224 -60.5q-145 0 -238 64t-93 176v9h195zM268 -260l17 21.5l16.5 22t9.5 12.5q0 1 -12 12.5t-21 29t-9 39.5q0 36 26.5 62.5t63.5 26.5t62.5 -26t25.5 -70q0 -68 -122 -185z
" />
    <glyph glyph-name="caron" unicode="&#x2c7;" horiz-adv-x="723" 
d="M474 1004l-227 -179l-228 179l85 107l143 -92l141 92z" />
    <glyph glyph-name="dotaccent" unicode="&#x2d9;" horiz-adv-x="423" 
d="M0 918q0 39 28.5 67.5t68.5 28.5t68 -28.5t28 -67.5q0 -41 -28 -69.5t-68 -28.5t-68.5 28.5t-28.5 69.5z" />
    <glyph glyph-name="ring" unicode="&#x2da;" horiz-adv-x="562" 
d="M0 970q0 69 48.5 118t116.5 49t117.5 -49.5t49.5 -117.5t-49.5 -116.5t-117.5 -48.5t-116.5 48.5t-48.5 116.5zM117 970q0 -20 14 -34t34 -14t34 14t14 34t-14 34t-34 14t-34 -14t-14 -34z" />
    <glyph glyph-name="ogonek" unicode="&#x2db;" horiz-adv-x="443" 
d="M219 0q-89 -40 -89 -87q0 -20 17 -27.5t43 -2.5l23 -143q-92 -11 -152.5 26.5t-60.5 108.5q0 31 13.5 58t32 45t47 35.5t49 26.5t47.5 19z" />
    <glyph glyph-name="hungarumlaut" unicode="&#x2dd;" horiz-adv-x="799" 
d="M270 966l162 205l137 -137l-204 -164zM0 966l164 204l137 -137l-205 -163z" />
    <glyph glyph-name="gravecomb" unicode="&#x300;" horiz-adv-x="0" 
d="M-143 836l-314 54l4 45l320 -69z" />
    <glyph glyph-name="acutecomb" unicode="&#x301;" horiz-adv-x="0" 
d="M-447 836l-10 30l320 69l4 -45z" />
    <glyph glyph-name="uni0302" unicode="&#x302;" horiz-adv-x="0" 
d="M-175 825l-161 53l-163 -53l-15 17l178 79l177 -79z" />
    <glyph glyph-name="tildecomb" unicode="&#x303;" horiz-adv-x="0" 
d="M-578 840q20 72 93 72q41 0 93 -29q42 -22 76 -22q52 0 76 32h32q-20 -72 -93 -72q-42 0 -93 29q-41 22 -76 22q-53 0 -76 -32h-32z" />
    <glyph glyph-name="uni0306" unicode="&#x306;" horiz-adv-x="0" 
d="M-495 901q14 -33 45 -46.5t99 -13.5q73 0 101 13t43 47h40q-24 -50 -68.5 -70.5t-115.5 -20.5q-72 0 -116 20.5t-67 70.5h39z" />
    <glyph glyph-name="hookabovecomb" unicode="&#x309;" horiz-adv-x="0" 
d="M-303 1007q70 -20 63 -75q-3 -30 -37 -67q-25 -32 -28 -56q-5 -38 25 -59l-3 -24q-70 20 -63 75q3 31 37 67q25 29 28 56q5 40 -25 59z" />
    <glyph glyph-name="uni031B" unicode="&#x31b;" horiz-adv-x="0" 
d="M-247 468l-62 -2l16 177l75 -8z" />
    <glyph glyph-name="dotbelowcomb" unicode="&#x323;" horiz-adv-x="0" 
d="M-155 -84v-90h-250v90h250z" />
    <glyph glyph-name="Wgrave" unicode="&#x1e80;" horiz-adv-x="1377" 
d="M685 818l-290 133l97 168l260 -185zM218 0l-219 780h213l126 -465l146 465h178l146 -464l126 464h214l-219 -780h-207l-149 453l-148 -453h-207z" />
    <glyph glyph-name="wgrave" unicode="&#x1e81;" horiz-adv-x="1377" 
d="M685 818l-290 133l97 168l260 -185zM218 0l-219 780h213l126 -465l146 465h178l146 -464l126 464h214l-219 -780h-207l-149 453l-148 -453h-207z" />
    <glyph glyph-name="Wacute" unicode="&#x1e82;" horiz-adv-x="1377" 
d="M395 934l260 185l97 -168l-290 -133zM218 0l-219 780h213l126 -465l146 465h178l146 -464l126 464h214l-219 -780h-207l-149 453l-148 -453h-207z" />
    <glyph glyph-name="wacute" unicode="&#x1e83;" horiz-adv-x="1377" 
d="M395 934l260 185l97 -168l-290 -133zM218 0l-219 780h213l126 -465l146 465h178l146 -464l126 464h214l-219 -780h-207l-149 453l-148 -453h-207z" />
    <glyph glyph-name="Wdieresis" unicode="&#x1e84;" horiz-adv-x="1377" 
d="M351 928q0 39 28.5 67.5t68.5 28.5t68 -28.5t28 -67.5q0 -41 -28 -69.5t-68 -28.5t-68.5 28.5t-28.5 69.5zM603 928q0 39 28.5 67.5t68.5 28.5t68 -28.5t28 -67.5q0 -41 -28 -69.5t-68 -28.5t-68.5 28.5t-28.5 69.5zM218 0l-219 780h213l126 -465l146 465h178l146 -464
l126 464h214l-219 -780h-207l-149 453l-148 -453h-207z" />
    <glyph glyph-name="wdieresis" unicode="&#x1e85;" horiz-adv-x="1377" 
d="M351 928q0 39 28.5 67.5t68.5 28.5t68 -28.5t28 -67.5q0 -41 -28 -69.5t-68 -28.5t-68.5 28.5t-28.5 69.5zM603 928q0 39 28.5 67.5t68.5 28.5t68 -28.5t28 -67.5q0 -41 -28 -69.5t-68 -28.5t-68.5 28.5t-28.5 69.5zM218 0l-219 780h213l126 -465l146 465h178l146 -464
l126 464h214l-219 -780h-207l-149 453l-148 -453h-207z" />
    <glyph glyph-name="uni1E9E" unicode="&#x1e9e;" horiz-adv-x="1114" 
d="M443 228q48 -64 127 -64q44 0 71 22t27 55q0 51 -56 72.5t-146 -1.5l-99 136l199 155q-61 19 -155 19q-84 0 -128 -44.5t-44 -114.5v-463h-188v478q0 64 22.5 121.5t65.5 103.5t114 73.5t160 27.5q79 0 189 -20t204 -51v-142l-156 -121q35 -6 70 -22t67.5 -42.5t53 -69
t20.5 -93.5q0 -108 -80.5 -183t-202.5 -75q-87 0 -166 36.5t-129 105.5z" />
    <glyph glyph-name="uni1EA0" unicode="&#x1ea0;" 
d="M514 780l315 -780h-218l-43 114h-307l-43 -114h-218l316 780h198zM415 524l-86 -229h171zM530 -84v-90h-250v90h250z" />
    <glyph glyph-name="uni1EA1" unicode="&#x1ea1;" 
d="M514 780l315 -780h-218l-43 114h-307l-43 -114h-218l316 780h198zM415 524l-86 -229h171zM540 -84v-90h-250v90h250z" />
    <glyph glyph-name="uni1EA2" unicode="&#x1ea2;" 
d="M405 1105q70 -20 63 -75q-3 -30 -37 -67q-25 -32 -28 -56q-5 -38 25 -59l-3 -24q-70 20 -63 75q3 31 37 67q25 29 28 56q5 40 -25 59zM514 780l315 -780h-218l-43 114h-307l-43 -114h-218l316 780h198zM415 524l-86 -229h171z" />
    <glyph glyph-name="uni1EA3" unicode="&#x1ea3;" 
d="M405 1105q70 -20 63 -75q-3 -30 -37 -67q-25 -32 -28 -56q-5 -38 25 -59l-3 -24q-70 20 -63 75q3 31 37 67q25 29 28 56q5 40 -25 59zM514 780l315 -780h-218l-43 114h-307l-43 -114h-218l316 780h198zM415 524l-86 -229h171z" />
    <glyph glyph-name="uni1EA4" unicode="&#x1ea4;" 
d="M692 837l-31 4l73 319l42 -15zM576 825l-161 53l-163 -53l-15 17l178 79l177 -79zM514 780l315 -780h-218l-43 114h-307l-43 -114h-218l316 780h198zM415 524l-86 -229h171z" />
    <glyph glyph-name="uni1EA5" unicode="&#x1ea5;" 
d="M692 837l-31 4l73 319l42 -15zM576 825l-161 53l-163 -53l-15 17l178 79l177 -79zM514 780l315 -780h-218l-43 114h-307l-43 -114h-218l316 780h198zM415 524l-86 -229h171z" />
    <glyph glyph-name="uni1EA6" unicode="&#x1ea6;" 
d="M777 906l-314 54l4 45l320 -69zM576 825l-161 53l-163 -53l-15 17l178 79l177 -79zM514 780l315 -780h-218l-43 114h-307l-43 -114h-218l316 780h198zM415 524l-86 -229h171z" />
    <glyph glyph-name="uni1EA7" unicode="&#x1ea7;" 
d="M777 906l-314 54l4 45l320 -69zM576 825l-161 53l-163 -53l-15 17l178 79l177 -79zM514 780l315 -780h-218l-43 114h-307l-43 -114h-218l316 780h198zM415 524l-86 -229h171z" />
    <glyph glyph-name="uni1EA8" unicode="&#x1ea8;" 
d="M701 1074q70 -20 63 -75q-3 -30 -37 -67q-25 -32 -28 -56q-5 -38 25 -59l-3 -24q-70 20 -63 75q3 31 37 67q25 29 28 56q5 40 -25 59zM576 825l-161 53l-163 -53l-15 17l178 79l177 -79zM514 780l315 -780h-218l-43 114h-307l-43 -114h-218l316 780h198zM415 524
l-86 -229h171z" />
    <glyph glyph-name="uni1EA9" unicode="&#x1ea9;" 
d="M701 1074q70 -20 63 -75q-3 -30 -37 -67q-25 -32 -28 -56q-5 -38 25 -59l-3 -24q-70 20 -63 75q3 31 37 67q25 29 28 56q5 40 -25 59zM576 825l-161 53l-163 -53l-15 17l178 79l177 -79zM514 780l315 -780h-218l-43 114h-307l-43 -114h-218l316 780h198zM415 524
l-86 -229h171z" />
    <glyph glyph-name="uni1EAA" unicode="&#x1eaa;" 
d="M554 927q20 72 93 72q41 0 93 -29q42 -22 76 -22q52 0 76 32h32q-20 -72 -93 -72q-42 0 -93 29q-41 22 -76 22q-53 0 -76 -32h-32zM576 825l-161 53l-163 -53l-15 17l178 79l177 -79zM514 780l315 -780h-218l-43 114h-307l-43 -114h-218l316 780h198zM415 524l-86 -229
h171z" />
    <glyph glyph-name="uni1EAB" unicode="&#x1eab;" 
d="M554 927q20 72 93 72q41 0 93 -29q42 -22 76 -22q52 0 76 32h32q-20 -72 -93 -72q-42 0 -93 29q-41 22 -76 22q-53 0 -76 -32h-32zM576 825l-161 53l-163 -53l-15 17l178 79l177 -79zM514 780l315 -780h-218l-43 114h-307l-43 -114h-218l316 780h198zM415 524l-86 -229
h171z" />
    <glyph glyph-name="uni1EAC" unicode="&#x1eac;" 
d="M576 825l-161 53l-163 -53l-15 17l178 79l177 -79zM514 780l315 -780h-218l-43 114h-307l-43 -114h-218l316 780h198zM415 524l-86 -229h171zM530 -84v-90h-250v90h250z" />
    <glyph glyph-name="uni1EAD" unicode="&#x1ead;" 
d="M576 825l-161 53l-163 -53l-15 17l178 79l177 -79zM514 780l315 -780h-218l-43 114h-307l-43 -114h-218l316 780h198zM415 524l-86 -229h171zM540 -84v-90h-250v90h250z" />
    <glyph glyph-name="uni1EAE" unicode="&#x1eae;" 
d="M673 815l-31 7l100 311l41 -19zM270 901q14 -33 45 -46.5t99 -13.5q73 0 101 13t43 47h40q-24 -50 -68.5 -70.5t-115.5 -20.5q-72 0 -116 20.5t-67 70.5h39zM514 780l315 -780h-218l-43 114h-307l-43 -114h-218l316 780h198zM415 524l-86 -229h171z" />
    <glyph glyph-name="uni1EAF" unicode="&#x1eaf;" 
d="M673 815l-31 7l100 311l41 -19zM270 901q14 -33 45 -46.5t99 -13.5q73 0 101 13t43 47h40q-24 -50 -68.5 -70.5t-115.5 -20.5q-72 0 -116 20.5t-67 70.5h39zM514 780l315 -780h-218l-43 114h-307l-43 -114h-218l316 780h198zM415 524l-86 -229h171z" />
    <glyph glyph-name="uni1EB0" unicode="&#x1eb0;" 
d="M853 924l-314 54l4 45l320 -69zM270 901q14 -33 45 -46.5t99 -13.5q73 0 101 13t43 47h40q-24 -50 -68.5 -70.5t-115.5 -20.5q-72 0 -116 20.5t-67 70.5h39zM514 780l315 -780h-218l-43 114h-307l-43 -114h-218l316 780h198zM415 524l-86 -229h171z" />
    <glyph glyph-name="uni1EB1" unicode="&#x1eb1;" 
d="M853 924l-314 54l4 45l320 -69zM270 901q14 -33 45 -46.5t99 -13.5q73 0 101 13t43 47h40q-24 -50 -68.5 -70.5t-115.5 -20.5q-72 0 -116 20.5t-67 70.5h39zM514 780l315 -780h-218l-43 114h-307l-43 -114h-218l316 780h198zM415 524l-86 -229h171z" />
    <glyph glyph-name="uni1EB2" unicode="&#x1eb2;" 
d="M675 1031q70 -20 63 -75q-3 -30 -37 -67q-25 -32 -28 -56q-5 -38 25 -59l-3 -24q-70 20 -63 75q3 31 37 67q25 29 28 56q5 40 -25 59zM270 901q14 -33 45 -46.5t99 -13.5q73 0 101 13t43 47h40q-24 -50 -68.5 -70.5t-115.5 -20.5q-72 0 -116 20.5t-67 70.5h39zM514 780
l315 -780h-218l-43 114h-307l-43 -114h-218l316 780h198zM415 524l-86 -229h171z" />
    <glyph glyph-name="uni1EB3" unicode="&#x1eb3;" 
d="M675 1031q70 -20 63 -75q-3 -30 -37 -67q-25 -32 -28 -56q-5 -38 25 -59l-3 -24q-70 20 -63 75q3 31 37 67q25 29 28 56q5 40 -25 59zM270 901q14 -33 45 -46.5t99 -13.5q73 0 101 13t43 47h40q-24 -50 -68.5 -70.5t-115.5 -20.5q-72 0 -116 20.5t-67 70.5h39zM514 780
l315 -780h-218l-43 114h-307l-43 -114h-218l316 780h198zM415 524l-86 -229h171z" />
    <glyph glyph-name="uni1EB4" unicode="&#x1eb4;" 
d="M462 963q20 72 93 72q41 0 93 -29q42 -22 76 -22q52 0 76 32h32q-20 -72 -93 -72q-42 0 -93 29q-41 22 -76 22q-53 0 -76 -32h-32zM270 901q14 -33 45 -46.5t99 -13.5q73 0 101 13t43 47h40q-24 -50 -68.5 -70.5t-115.5 -20.5q-72 0 -116 20.5t-67 70.5h39zM514 780
l315 -780h-218l-43 114h-307l-43 -114h-218l316 780h198zM415 524l-86 -229h171z" />
    <glyph glyph-name="uni1EB5" unicode="&#x1eb5;" 
d="M462 963q20 72 93 72q41 0 93 -29q42 -22 76 -22q52 0 76 32h32q-20 -72 -93 -72q-42 0 -93 29q-41 22 -76 22q-53 0 -76 -32h-32zM270 901q14 -33 45 -46.5t99 -13.5q73 0 101 13t43 47h40q-24 -50 -68.5 -70.5t-115.5 -20.5q-72 0 -116 20.5t-67 70.5h39zM514 780
l315 -780h-218l-43 114h-307l-43 -114h-218l316 780h198zM415 524l-86 -229h171z" />
    <glyph glyph-name="uni1EB6" unicode="&#x1eb6;" 
d="M270 901q14 -33 45 -46.5t99 -13.5q73 0 101 13t43 47h40q-24 -50 -68.5 -70.5t-115.5 -20.5q-72 0 -116 20.5t-67 70.5h39zM514 780l315 -780h-218l-43 114h-307l-43 -114h-218l316 780h198zM415 524l-86 -229h171zM530 -84v-90h-250v90h250z" />
    <glyph glyph-name="uni1EB7" unicode="&#x1eb7;" 
d="M270 901q14 -33 45 -46.5t99 -13.5q73 0 101 13t43 47h40q-24 -50 -68.5 -70.5t-115.5 -20.5q-72 0 -116 20.5t-67 70.5h39zM514 780l315 -780h-218l-43 114h-307l-43 -114h-218l316 780h198zM415 524l-86 -229h171zM540 -84v-90h-250v90h250z" />
    <glyph glyph-name="uni1EB8" unicode="&#x1eb8;" horiz-adv-x="926" 
d="M60 780h599v-194h-399v-112h328v-181h-328v-100h399v-193h-599v780zM491 -84v-90h-250v90h250z" />
    <glyph glyph-name="uni1EB9" unicode="&#x1eb9;" horiz-adv-x="926" 
d="M60 780h599v-194h-399v-112h328v-181h-328v-100h399v-193h-599v780zM484 -84v-90h-250v90h250z" />
    <glyph glyph-name="uni1EBA" unicode="&#x1eba;" horiz-adv-x="926" 
d="M344 1105q70 -20 63 -75q-3 -30 -37 -67q-25 -32 -28 -56q-5 -38 25 -59l-3 -24q-70 20 -63 75q3 31 37 67q25 29 28 56q5 40 -25 59zM60 780h599v-194h-399v-112h328v-181h-328v-100h399v-193h-599v780z" />
    <glyph glyph-name="uni1EBB" unicode="&#x1ebb;" horiz-adv-x="926" 
d="M332 1105q70 -20 63 -75q-3 -30 -37 -67q-25 -32 -28 -56q-5 -38 25 -59l-3 -24q-70 20 -63 75q3 31 37 67q25 29 28 56q5 40 -25 59zM60 780h599v-194h-399v-112h328v-181h-328v-100h399v-193h-599v780z" />
    <glyph glyph-name="uni1EBC" unicode="&#x1ebc;" horiz-adv-x="926" 
d="M169 840q19 72 93 72q41 0 93 -29q42 -22 76 -22q52 0 76 32h32q-19 -72 -93 -72q-42 0 -93 29q-41 22 -76 22q-53 0 -76 -32h-32zM60 780h599v-194h-399v-112h328v-181h-328v-100h399v-193h-599v780z" />
    <glyph glyph-name="uni1EBD" unicode="&#x1ebd;" horiz-adv-x="926" 
d="M157 840q19 72 93 72q41 0 93 -29q42 -22 76 -22q52 0 76 32h32q-19 -72 -93 -72q-42 0 -93 29q-41 22 -76 22q-53 0 -76 -32h-32zM60 780h599v-194h-399v-112h328v-181h-328v-100h399v-193h-599v780z" />
    <glyph glyph-name="uni1EBE" unicode="&#x1ebe;" horiz-adv-x="926" 
d="M631 837l-31 4l73 319l42 -15zM515 825l-161 53l-163 -53l-15 17l178 79l177 -79zM60 780h599v-194h-399v-112h328v-181h-328v-100h399v-193h-599v780z" />
    <glyph glyph-name="uni1EBF" unicode="&#x1ebf;" horiz-adv-x="926" 
d="M619 837l-31 4l73 319l42 -15zM503 825l-161 53l-163 -53l-15 17l178 79l177 -79zM60 780h599v-194h-399v-112h328v-181h-328v-100h399v-193h-599v780z" />
    <glyph glyph-name="uni1EC0" unicode="&#x1ec0;" horiz-adv-x="926" 
d="M716 906l-314 54l4 45l320 -69zM515 825l-161 53l-163 -53l-15 17l178 79l177 -79zM60 780h599v-194h-399v-112h328v-181h-328v-100h399v-193h-599v780z" />
    <glyph glyph-name="uni1EC1" unicode="&#x1ec1;" horiz-adv-x="926" 
d="M704 906l-314 54l4 45l320 -69zM503 825l-161 53l-163 -53l-15 17l178 79l177 -79zM60 780h599v-194h-399v-112h328v-181h-328v-100h399v-193h-599v780z" />
    <glyph glyph-name="uni1EC2" unicode="&#x1ec2;" horiz-adv-x="926" 
d="M640 1074q70 -20 63 -75q-3 -30 -37 -67q-25 -32 -28 -56q-5 -38 25 -59l-3 -24q-70 20 -63 75q3 31 37 67q25 29 28 56q5 40 -25 59zM515 825l-161 53l-163 -53l-15 17l178 79l177 -79zM60 780h599v-194h-399v-112h328v-181h-328v-100h399v-193h-599v780z" />
    <glyph glyph-name="uni1EC3" unicode="&#x1ec3;" horiz-adv-x="926" 
d="M628 1074q70 -20 63 -75q-3 -30 -37 -67q-25 -32 -28 -56q-5 -38 25 -59l-3 -24q-70 20 -63 75q3 31 37 67q25 29 28 56q5 40 -25 59zM503 825l-161 53l-163 -53l-15 17l178 79l177 -79zM60 780h599v-194h-399v-112h328v-181h-328v-100h399v-193h-599v780z" />
    <glyph glyph-name="uni1EC4" unicode="&#x1ec4;" horiz-adv-x="926" 
d="M493 927q19 72 93 72q41 0 93 -29q42 -22 76 -22q52 0 76 32h32q-19 -72 -93 -72q-42 0 -93 29q-41 22 -76 22q-53 0 -76 -32h-32zM515 825l-161 53l-163 -53l-15 17l178 79l177 -79zM60 780h599v-194h-399v-112h328v-181h-328v-100h399v-193h-599v780z" />
    <glyph glyph-name="uni1EC5" unicode="&#x1ec5;" horiz-adv-x="926" 
d="M481 927q19 72 93 72q41 0 93 -29q42 -22 76 -22q52 0 76 32h32q-19 -72 -93 -72q-42 0 -93 29q-41 22 -76 22q-53 0 -76 -32h-32zM503 825l-161 53l-163 -53l-15 17l178 79l177 -79zM60 780h599v-194h-399v-112h328v-181h-328v-100h399v-193h-599v780z" />
    <glyph glyph-name="uni1EC6" unicode="&#x1ec6;" horiz-adv-x="926" 
d="M515 825l-161 53l-163 -53l-15 17l178 79l177 -79zM60 780h599v-194h-399v-112h328v-181h-328v-100h399v-193h-599v780zM491 -84v-90h-250v90h250z" />
    <glyph glyph-name="uni1EC7" unicode="&#x1ec7;" horiz-adv-x="926" 
d="M503 825l-161 53l-163 -53l-15 17l178 79l177 -79zM60 780h599v-194h-399v-112h328v-181h-328v-100h399v-193h-599v780zM484 -84v-90h-250v90h250z" />
    <glyph glyph-name="uni1EC8" unicode="&#x1ec8;" horiz-adv-x="550" 
d="M147 1105q70 -20 63 -75q-3 -30 -37 -67q-25 -32 -28 -56q-5 -38 25 -59l-3 -24q-70 20 -63 75q3 31 37 67q25 29 28 56q5 40 -25 59zM260 780v-780h-200v780h200z" />
    <glyph glyph-name="uni1EC9" unicode="&#x1ec9;" horiz-adv-x="550" 
d="M151 1105q70 -20 63 -75q-3 -30 -37 -67q-25 -32 -28 -56q-5 -38 25 -59l-3 -24q-70 20 -63 75q3 31 37 67q25 29 28 56q5 40 -25 59zM260 780v-780h-200v780h200z" />
    <glyph glyph-name="uni1ECA" unicode="&#x1eca;" horiz-adv-x="550" 
d="M260 780v-780h-200v780h200zM285 -84v-90h-250v90h250z" />
    <glyph glyph-name="uni1ECB" unicode="&#x1ecb;" horiz-adv-x="550" 
d="M260 780v-780h-200v780h200zM283 -84v-90h-250v90h250z" />
    <glyph glyph-name="uni1ECC" unicode="&#x1ecc;" horiz-adv-x="1104" 
d="M23 390q0 167 122.5 286t291.5 119q171 0 292.5 -119t121.5 -286t-121.5 -286t-292.5 -119q-169 0 -291.5 119t-122.5 286zM225 390q0 -88 62 -150t150 -62q90 0 151 61.5t61 150.5t-61 150.5t-151 61.5q-88 0 -150 -62t-62 -150zM563 -84v-90h-250v90h250z" />
    <glyph glyph-name="uni1ECD" unicode="&#x1ecd;" horiz-adv-x="1104" 
d="M23 390q0 167 122.5 286t291.5 119q171 0 292.5 -119t121.5 -286t-121.5 -286t-292.5 -119q-169 0 -291.5 119t-122.5 286zM225 390q0 -88 62 -150t150 -62q90 0 151 61.5t61 150.5t-61 150.5t-151 61.5q-88 0 -150 -62t-62 -150zM562 -84v-90h-250v90h250z" />
    <glyph glyph-name="uni1ECE" unicode="&#x1ece;" horiz-adv-x="1104" 
d="M436 1105q70 -20 63 -75q-3 -30 -37 -67q-25 -32 -28 -56q-5 -38 25 -59l-3 -24q-70 20 -63 75q3 31 37 67q25 29 28 56q5 40 -25 59zM23 390q0 167 122.5 286t291.5 119q171 0 292.5 -119t121.5 -286t-121.5 -286t-292.5 -119q-169 0 -291.5 119t-122.5 286zM225 390
q0 -88 62 -150t150 -62q90 0 151 61.5t61 150.5t-61 150.5t-151 61.5q-88 0 -150 -62t-62 -150z" />
    <glyph glyph-name="uni1ECF" unicode="&#x1ecf;" horiz-adv-x="1104" 
d="M427 1120q70 -20 63 -75q-3 -30 -37 -67q-25 -32 -28 -56q-5 -38 25 -59l-3 -24q-70 20 -63 75q3 31 37 67q25 29 28 56q5 40 -25 59zM23 390q0 167 122.5 286t291.5 119q171 0 292.5 -119t121.5 -286t-121.5 -286t-292.5 -119q-169 0 -291.5 119t-122.5 286zM225 390
q0 -88 62 -150t150 -62q90 0 151 61.5t61 150.5t-61 150.5t-151 61.5q-88 0 -150 -62t-62 -150z" />
    <glyph glyph-name="uni1ED0" unicode="&#x1ed0;" horiz-adv-x="1104" 
d="M723 837l-31 4l73 319l42 -15zM607 825l-161 53l-163 -53l-15 17l178 79l177 -79zM23 390q0 167 122.5 286t291.5 119q171 0 292.5 -119t121.5 -286t-121.5 -286t-292.5 -119q-169 0 -291.5 119t-122.5 286zM225 390q0 -88 62 -150t150 -62q90 0 151 61.5t61 150.5
t-61 150.5t-151 61.5q-88 0 -150 -62t-62 -150z" />
    <glyph glyph-name="uni1ED1" unicode="&#x1ed1;" horiz-adv-x="1104" 
d="M714 852l-31 4l73 319l42 -15zM598 840l-161 53l-163 -53l-15 17l178 79l177 -79zM23 390q0 167 122.5 286t291.5 119q171 0 292.5 -119t121.5 -286t-121.5 -286t-292.5 -119q-169 0 -291.5 119t-122.5 286zM225 390q0 -88 62 -150t150 -62q90 0 151 61.5t61 150.5
t-61 150.5t-151 61.5q-88 0 -150 -62t-62 -150z" />
    <glyph glyph-name="uni1ED2" unicode="&#x1ed2;" horiz-adv-x="1104" 
d="M808 906l-314 54l4 45l320 -69zM607 825l-161 53l-163 -53l-15 17l178 79l177 -79zM23 390q0 167 122.5 286t291.5 119q171 0 292.5 -119t121.5 -286t-121.5 -286t-292.5 -119q-169 0 -291.5 119t-122.5 286zM225 390q0 -88 62 -150t150 -62q90 0 151 61.5t61 150.5
t-61 150.5t-151 61.5q-88 0 -150 -62t-62 -150z" />
    <glyph glyph-name="uni1ED3" unicode="&#x1ed3;" horiz-adv-x="1104" 
d="M799 921l-314 54l4 45l320 -69zM598 840l-161 53l-163 -53l-15 17l178 79l177 -79zM23 390q0 167 122.5 286t291.5 119q171 0 292.5 -119t121.5 -286t-121.5 -286t-292.5 -119q-169 0 -291.5 119t-122.5 286zM225 390q0 -88 62 -150t150 -62q90 0 151 61.5t61 150.5
t-61 150.5t-151 61.5q-88 0 -150 -62t-62 -150z" />
    <glyph glyph-name="uni1ED4" unicode="&#x1ed4;" horiz-adv-x="1104" 
d="M732 1074q70 -20 63 -75q-3 -30 -37 -67q-25 -32 -28 -56q-5 -38 25 -59l-3 -24q-70 20 -63 75q3 31 37 67q25 29 28 56q5 40 -25 59zM607 825l-161 53l-163 -53l-15 17l178 79l177 -79zM23 390q0 167 122.5 286t291.5 119q171 0 292.5 -119t121.5 -286t-121.5 -286
t-292.5 -119q-169 0 -291.5 119t-122.5 286zM225 390q0 -88 62 -150t150 -62q90 0 151 61.5t61 150.5t-61 150.5t-151 61.5q-88 0 -150 -62t-62 -150z" />
    <glyph glyph-name="uni1ED5" unicode="&#x1ed5;" horiz-adv-x="1104" 
d="M723 1089q70 -20 63 -75q-3 -30 -37 -67q-25 -32 -28 -56q-5 -38 25 -59l-3 -24q-70 20 -63 75q3 31 37 67q25 29 28 56q5 40 -25 59zM598 840l-161 53l-163 -53l-15 17l178 79l177 -79zM23 390q0 167 122.5 286t291.5 119q171 0 292.5 -119t121.5 -286t-121.5 -286
t-292.5 -119q-169 0 -291.5 119t-122.5 286zM225 390q0 -88 62 -150t150 -62q90 0 151 61.5t61 150.5t-61 150.5t-151 61.5q-88 0 -150 -62t-62 -150z" />
    <glyph glyph-name="uni1ED6" unicode="&#x1ed6;" horiz-adv-x="1104" 
d="M585 927q19 72 93 72q41 0 93 -29q42 -22 76 -22q52 0 76 32h32q-19 -72 -93 -72q-42 0 -93 29q-41 22 -76 22q-53 0 -76 -32h-32zM607 825l-161 53l-163 -53l-15 17l178 79l177 -79zM23 390q0 167 122.5 286t291.5 119q171 0 292.5 -119t121.5 -286t-121.5 -286
t-292.5 -119q-169 0 -291.5 119t-122.5 286zM225 390q0 -88 62 -150t150 -62q90 0 151 61.5t61 150.5t-61 150.5t-151 61.5q-88 0 -150 -62t-62 -150z" />
    <glyph glyph-name="uni1ED7" unicode="&#x1ed7;" horiz-adv-x="1104" 
d="M576 942q20 72 93 72q41 0 93 -29q42 -22 76 -22q52 0 76 32h32q-20 -72 -93 -72q-42 0 -93 29q-41 22 -76 22q-53 0 -76 -32h-32zM598 840l-161 53l-163 -53l-15 17l178 79l177 -79zM23 390q0 167 122.5 286t291.5 119q171 0 292.5 -119t121.5 -286t-121.5 -286
t-292.5 -119q-169 0 -291.5 119t-122.5 286zM225 390q0 -88 62 -150t150 -62q90 0 151 61.5t61 150.5t-61 150.5t-151 61.5q-88 0 -150 -62t-62 -150z" />
    <glyph glyph-name="uni1ED8" unicode="&#x1ed8;" horiz-adv-x="1104" 
d="M607 825l-161 53l-163 -53l-15 17l178 79l177 -79zM23 390q0 167 122.5 286t291.5 119q171 0 292.5 -119t121.5 -286t-121.5 -286t-292.5 -119q-169 0 -291.5 119t-122.5 286zM225 390q0 -88 62 -150t150 -62q90 0 151 61.5t61 150.5t-61 150.5t-151 61.5q-88 0 -150 -62
t-62 -150zM563 -84v-90h-250v90h250z" />
    <glyph glyph-name="uni1ED9" unicode="&#x1ed9;" horiz-adv-x="1104" 
d="M598 840l-161 53l-163 -53l-15 17l178 79l177 -79zM23 390q0 167 122.5 286t291.5 119q171 0 292.5 -119t121.5 -286t-121.5 -286t-292.5 -119q-169 0 -291.5 119t-122.5 286zM225 390q0 -88 62 -150t150 -62q90 0 151 61.5t61 150.5t-61 150.5t-151 61.5q-88 0 -150 -62
t-62 -150zM562 -84v-90h-250v90h250z" />
    <glyph glyph-name="uni1EDA" unicode="&#x1eda;" horiz-adv-x="1104" 
d="M608 890l-314 -54l-10 30l320 69zM674 721q82 -56 129.5 -143t47.5 -188q0 -167 -121.5 -286t-292.5 -119q-169 0 -291.5 119t-122.5 286t122.5 286t291.5 119q119 0 223 -64l15 167l75 -8l-29 -167zM437 178q90 0 151 61.5t61 150.5t-61 150.5t-151 61.5q-88 0 -150 -62
t-62 -150t62 -150t150 -62z" />
    <glyph glyph-name="uni1EDB" unicode="&#x1edb;" horiz-adv-x="1104" 
d="M599 905l-314 -54l-10 30l320 69zM672 723q83 -56 131 -143.5t48 -189.5q0 -167 -121.5 -286t-292.5 -119q-169 0 -291.5 119t-122.5 286t122.5 286t291.5 119q112 0 208 -55l14 159l75 -8l-29 -167zM437 178q90 0 151 61.5t61 150.5t-61 150.5t-151 61.5q-88 0 -150 -62
t-62 -150t62 -150t150 -62z" />
    <glyph glyph-name="uni1EDC" unicode="&#x1edc;" horiz-adv-x="1104" 
d="M608 866l-10 -30l-314 54l4 45zM674 721q82 -56 129.5 -143t47.5 -188q0 -167 -121.5 -286t-292.5 -119q-169 0 -291.5 119t-122.5 286t122.5 286t291.5 119q119 0 223 -64l15 167l75 -8l-29 -167zM437 178q90 0 151 61.5t61 150.5t-61 150.5t-151 61.5q-88 0 -150 -62
t-62 -150t62 -150t150 -62z" />
    <glyph glyph-name="uni1EDD" unicode="&#x1edd;" horiz-adv-x="1104" 
d="M599 881l-10 -30l-314 54l4 45zM672 723q83 -56 131 -143.5t48 -189.5q0 -167 -121.5 -286t-292.5 -119q-169 0 -291.5 119t-122.5 286t122.5 286t291.5 119q112 0 208 -55l14 159l75 -8l-29 -167zM437 178q90 0 151 61.5t61 150.5t-61 150.5t-151 61.5q-88 0 -150 -62
t-62 -150t62 -150t150 -62z" />
    <glyph glyph-name="uni1EDE" unicode="&#x1ede;" horiz-adv-x="1104" 
d="M456 824q-70 20 -63 75q3 31 37 67q25 29 28 56q5 40 -25 59l3 24q70 -20 63 -75q-3 -30 -37 -67q-25 -32 -28 -56q-5 -38 25 -59zM674 721q82 -56 129.5 -143t47.5 -188q0 -167 -121.5 -286t-292.5 -119q-169 0 -291.5 119t-122.5 286t122.5 286t291.5 119
q119 0 223 -64l15 167l75 -8l-29 -167zM437 178q90 0 151 61.5t61 150.5t-61 150.5t-151 61.5q-88 0 -150 -62t-62 -150t62 -150t150 -62z" />
    <glyph glyph-name="uni1EDF" unicode="&#x1edf;" horiz-adv-x="1104" 
d="M447 839q-70 20 -63 75q3 31 37 67q25 29 28 56q5 40 -25 59l3 24q70 -20 63 -75q-3 -30 -37 -67q-25 -32 -28 -56q-5 -38 25 -59zM672 723q83 -56 131 -143.5t48 -189.5q0 -167 -121.5 -286t-292.5 -119q-169 0 -291.5 119t-122.5 286t122.5 286t291.5 119
q112 0 208 -55l14 159l75 -8l-29 -167zM437 178q90 0 151 61.5t61 150.5t-61 150.5t-151 61.5q-88 0 -150 -62t-62 -150t62 -150t150 -62z" />
    <glyph glyph-name="uni1EE0" unicode="&#x1ee0;" horiz-adv-x="1104" 
d="M369 872q-53 0 -76 -32h-32q20 72 93 72q41 0 93 -29q42 -22 76 -22q52 0 76 32h32q-19 -72 -93 -72q-42 0 -93 29q-41 22 -76 22zM674 721q82 -56 129.5 -143t47.5 -188q0 -167 -121.5 -286t-292.5 -119q-169 0 -291.5 119t-122.5 286t122.5 286t291.5 119
q119 0 223 -64l15 167l75 -8l-29 -167zM437 178q90 0 151 61.5t61 150.5t-61 150.5t-151 61.5q-88 0 -150 -62t-62 -150t62 -150t150 -62z" />
    <glyph glyph-name="uni1EE1" unicode="&#x1ee1;" horiz-adv-x="1104" 
d="M360 887q-53 0 -76 -32h-32q20 72 93 72q41 0 93 -29q42 -22 76 -22q52 0 76 32h32q-20 -72 -93 -72q-42 0 -93 29q-41 22 -76 22zM672 723q83 -56 131 -143.5t48 -189.5q0 -167 -121.5 -286t-292.5 -119q-169 0 -291.5 119t-122.5 286t122.5 286t291.5 119
q112 0 208 -55l14 159l75 -8l-29 -167zM437 178q90 0 151 61.5t61 150.5t-61 150.5t-151 61.5q-88 0 -150 -62t-62 -150t62 -150t150 -62z" />
    <glyph glyph-name="uni1EE2" unicode="&#x1ee2;" horiz-adv-x="1104" 
d="M674 721q82 -56 129.5 -143t47.5 -188q0 -167 -121.5 -286t-292.5 -119q-169 0 -291.5 119t-122.5 286t122.5 286t291.5 119q119 0 223 -64l15 167l75 -8l-29 -167zM437 178q90 0 151 61.5t61 150.5t-61 150.5t-151 61.5q-88 0 -150 -62t-62 -150t62 -150t150 -62z
M313 -174v90h250v-90h-250z" />
    <glyph glyph-name="uni1EE3" unicode="&#x1ee3;" horiz-adv-x="1104" 
d="M672 723q83 -56 131 -143.5t48 -189.5q0 -167 -121.5 -286t-292.5 -119q-169 0 -291.5 119t-122.5 286t122.5 286t291.5 119q112 0 208 -55l14 159l75 -8l-29 -167zM437 178q90 0 151 61.5t61 150.5t-61 150.5t-151 61.5q-88 0 -150 -62t-62 -150t62 -150t150 -62z
M312 -174v90h250v-90h-250z" />
    <glyph glyph-name="uni1EE4" unicode="&#x1ee4;" horiz-adv-x="1045" 
d="M766 780v-439q0 -156 -95 -256t-264 -100q-170 0 -264 99.5t-94 256.5v439h200v-427q0 -85 40 -130t118 -45t119 45t41 130v427h199zM537 -84v-90h-250v90h250z" />
    <glyph glyph-name="uni1EE5" unicode="&#x1ee5;" horiz-adv-x="1045" 
d="M766 780v-439q0 -156 -95 -256t-264 -100q-170 0 -264 99.5t-94 256.5v439h200v-427q0 -85 40 -130t118 -45t119 45t41 130v427h199zM539 -84v-90h-250v90h250z" />
    <glyph glyph-name="uni1EE6" unicode="&#x1ee6;" horiz-adv-x="1045" 
d="M400 1105q70 -20 63 -75q-3 -30 -37 -67q-25 -32 -28 -56q-5 -38 25 -59l-3 -24q-70 20 -63 75q3 31 37 67q25 29 28 56q5 40 -25 59zM766 780v-439q0 -156 -95 -256t-264 -100q-170 0 -264 99.5t-94 256.5v439h200v-427q0 -85 40 -130t118 -45t119 45t41 130v427h199z
" />
    <glyph glyph-name="uni1EE7" unicode="&#x1ee7;" horiz-adv-x="1045" 
d="M403 1105q70 -20 63 -75q-3 -30 -37 -67q-25 -32 -28 -56q-5 -38 25 -59l-3 -24q-70 20 -63 75q3 31 37 67q25 29 28 56q5 40 -25 59zM766 780v-439q0 -156 -95 -256t-264 -100q-170 0 -264 99.5t-94 256.5v439h200v-427q0 -85 40 -130t118 -45t119 45t41 130v427h199z
" />
    <glyph glyph-name="uni1EE8" unicode="&#x1ee8;" horiz-adv-x="1045" 
d="M258 836l-10 30l320 69l4 -45zM850 723l-62 -2l16 177l75 -8zM766 780v-439q0 -156 -95 -256t-264 -100q-170 0 -264 99.5t-94 256.5v439h200v-427q0 -85 40 -130t118 -45t119 45t41 130v427h199z" />
    <glyph glyph-name="uni1EE9" unicode="&#x1ee9;" horiz-adv-x="1045" 
d="M261 836l-10 30l320 69l4 -45zM854 705l-62 -2l16 177l75 -8zM766 780v-439q0 -156 -95 -256t-264 -100q-170 0 -264 99.5t-94 256.5v439h200v-427q0 -85 40 -130t118 -45t119 45t41 130v427h199z" />
    <glyph glyph-name="uni1EEA" unicode="&#x1eea;" horiz-adv-x="1045" 
d="M562 836l-314 54l4 45l320 -69zM850 723l-62 -2l16 177l75 -8zM766 780v-439q0 -156 -95 -256t-264 -100q-170 0 -264 99.5t-94 256.5v439h200v-427q0 -85 40 -130t118 -45t119 45t41 130v427h199z" />
    <glyph glyph-name="uni1EEB" unicode="&#x1eeb;" horiz-adv-x="1045" 
d="M565 836l-314 54l4 45l320 -69zM854 705l-62 -2l16 177l75 -8zM766 780v-439q0 -156 -95 -256t-264 -100q-170 0 -264 99.5t-94 256.5v439h200v-427q0 -85 40 -130t118 -45t119 45t41 130v427h199z" />
    <glyph glyph-name="uni1EEC" unicode="&#x1eec;" horiz-adv-x="1045" 
d="M400 1105q70 -20 63 -75q-3 -30 -37 -67q-25 -32 -28 -56q-5 -38 25 -59l-3 -24q-70 20 -63 75q3 31 37 67q25 29 28 56q5 40 -25 59zM850 723l-62 -2l16 177l75 -8zM766 780v-439q0 -156 -95 -256t-264 -100q-170 0 -264 99.5t-94 256.5v439h200v-427q0 -85 40 -130
t118 -45t119 45t41 130v427h199z" />
    <glyph glyph-name="uni1EED" unicode="&#x1eed;" horiz-adv-x="1045" 
d="M403 1105q70 -20 63 -75q-3 -30 -37 -67q-25 -32 -28 -56q-5 -38 25 -59l-3 -24q-70 20 -63 75q3 31 37 67q25 29 28 56q5 40 -25 59zM854 705l-62 -2l16 177l75 -8zM766 780v-439q0 -156 -95 -256t-264 -100q-170 0 -264 99.5t-94 256.5v439h200v-427q0 -85 40 -130
t118 -45t119 45t41 130v427h199z" />
    <glyph glyph-name="uni1EEE" unicode="&#x1eee;" horiz-adv-x="1045" 
d="M225 840q19 72 93 72q41 0 93 -29q42 -22 76 -22q52 0 76 32h32q-19 -72 -93 -72q-42 0 -93 29q-41 22 -76 22q-53 0 -76 -32h-32zM850 723l-62 -2l16 177l75 -8zM766 780v-439q0 -156 -95 -256t-264 -100q-170 0 -264 99.5t-94 256.5v439h200v-427q0 -85 40 -130
t118 -45t119 45t41 130v427h199z" />
    <glyph glyph-name="uni1EEF" unicode="&#x1eef;" horiz-adv-x="1045" 
d="M228 840q20 72 93 72q41 0 93 -29q42 -22 76 -22q52 0 76 32h32q-20 -72 -93 -72q-42 0 -93 29q-41 22 -76 22q-53 0 -76 -32h-32zM854 705l-62 -2l16 177l75 -8zM766 780v-439q0 -156 -95 -256t-264 -100q-170 0 -264 99.5t-94 256.5v439h200v-427q0 -85 40 -130
t118 -45t119 45t41 130v427h199z" />
    <glyph glyph-name="uni1EF0" unicode="&#x1ef0;" horiz-adv-x="1045" 
d="M850 723l-62 -2l16 177l75 -8zM766 780v-439q0 -156 -95 -256t-264 -100q-170 0 -264 99.5t-94 256.5v439h200v-427q0 -85 40 -130t118 -45t119 45t41 130v427h199zM537 -84v-90h-250v90h250z" />
    <glyph glyph-name="uni1EF1" unicode="&#x1ef1;" horiz-adv-x="1045" 
d="M854 705l-62 -2l16 177l75 -8zM766 780v-439q0 -156 -95 -256t-264 -100q-170 0 -264 99.5t-94 256.5v439h200v-427q0 -85 40 -130t118 -45t119 45t41 130v427h199zM539 -84v-90h-250v90h250z" />
    <glyph glyph-name="Ygrave" unicode="&#x1ef2;" horiz-adv-x="1046" 
d="M565 836l-314 54l4 45l320 -69zM407 497l173 283h236l-309 -494v-286h-199v286l-308 494h235z" />
    <glyph glyph-name="ygrave" unicode="&#x1ef3;" horiz-adv-x="1046" 
d="M559 836l-314 54l4 45l320 -69zM407 497l173 283h236l-309 -494v-286h-199v286l-308 494h235z" />
    <glyph glyph-name="uni1EF4" unicode="&#x1ef4;" horiz-adv-x="1046" 
d="M407 497l173 283h236l-309 -494v-286h-199v286l-308 494h235zM530 -84v-90h-250v90h250z" />
    <glyph glyph-name="uni1EF5" unicode="&#x1ef5;" horiz-adv-x="1046" 
d="M407 497l173 283h236l-309 -494v-286h-199v286l-308 494h235zM529 -84v-90h-250v90h250z" />
    <glyph glyph-name="uni1EF6" unicode="&#x1ef6;" horiz-adv-x="1046" 
d="M403 1105q70 -20 63 -75q-3 -30 -37 -67q-25 -32 -28 -56q-5 -38 25 -59l-3 -24q-70 20 -63 75q3 31 37 67q25 29 28 56q5 40 -25 59zM407 497l173 283h236l-309 -494v-286h-199v286l-308 494h235z" />
    <glyph glyph-name="uni1EF7" unicode="&#x1ef7;" horiz-adv-x="1046" 
d="M397 1105q70 -20 63 -75q-3 -30 -37 -67q-25 -32 -28 -56q-5 -38 25 -59l-3 -24q-70 20 -63 75q3 31 37 67q25 29 28 56q5 40 -25 59zM407 497l173 283h236l-309 -494v-286h-199v286l-308 494h235z" />
    <glyph glyph-name="uni1EF8" unicode="&#x1ef8;" horiz-adv-x="1046" 
d="M228 840q20 72 93 72q41 0 93 -29q42 -22 76 -22q52 0 76 32h32q-20 -72 -93 -72q-42 0 -93 29q-41 22 -76 22q-53 0 -76 -32h-32zM407 497l173 283h236l-309 -494v-286h-199v286l-308 494h235z" />
    <glyph glyph-name="uni1EF9" unicode="&#x1ef9;" horiz-adv-x="1046" 
d="M222 840q20 72 93 72q41 0 93 -29q42 -22 76 -22q52 0 76 32h32q-20 -72 -93 -72q-42 0 -93 29q-41 22 -76 22q-53 0 -76 -32h-32zM407 497l173 283h236l-309 -494v-286h-199v286l-308 494h235z" />
    <glyph glyph-name="endash" unicode="&#x2013;" horiz-adv-x="863" 
d="M577 232h-520v187h520v-187z" />
    <glyph glyph-name="emdash" unicode="&#x2014;" horiz-adv-x="1022" 
d="M736 232h-679v187h679v-187z" />
    <glyph glyph-name="quoteleft" unicode="&#x2018;" horiz-adv-x="552" 
d="M288 730q-54 -58 -74 -96l14 -12q14 -13 23 -24t18 -32.5t9 -45.5q0 -52 -37 -89t-89 -37t-88.5 37t-36.5 99q0 106 183 276z" />
    <glyph glyph-name="quoteright" unicode="&#x2019;" horiz-adv-x="548" 
d="M37 458q54 58 74 96l-14 12q-14 13 -23 24t-18 32.5t-9 45.5q0 52 37 89t89 37t88.5 -37t36.5 -99q0 -106 -183 -276z" />
    <glyph glyph-name="quotesinglbase" unicode="&#x201a;" horiz-adv-x="553" 
d="M25 -101q54 58 74 96l-14 13q-14 12 -23 23t-18 32.5t-9 45.5q0 52 37 89t89 37t88.5 -37t36.5 -99q0 -106 -183 -276z" />
    <glyph glyph-name="quotedblleft" unicode="&#x201c;" horiz-adv-x="820" 
d="M288 730q-54 -58 -74 -96l14 -12q14 -13 23 -24t18 -32.5t9 -45.5q0 -52 -37 -89t-89 -37t-88.5 37t-36.5 99q0 106 183 276zM556 730q-54 -58 -74 -96l14 -12q14 -13 23 -24t18 -32.5t9 -45.5q0 -52 -37 -89t-89 -37t-88.5 37t-36.5 99q0 106 183 276z" />
    <glyph glyph-name="quotedblright" unicode="&#x201d;" horiz-adv-x="817" 
d="M37 458q54 58 74 96l-14 12q-14 13 -23 24t-18 32.5t-9 45.5q0 52 37 89t89 37t88.5 -37t36.5 -99q0 -106 -183 -276zM306 458q54 58 74 96l-14 12q-14 13 -23 24t-18 32.5t-9 45.5q0 52 37 89t89 37t88.5 -37t36.5 -99q0 -106 -183 -276z" />
    <glyph glyph-name="quotedblbase" unicode="&#x201e;" horiz-adv-x="822" 
d="M25 -101q54 58 74 96l-14 13q-14 12 -23 23t-18 32.5t-9 45.5q0 52 37 89t89 37t88.5 -37t36.5 -99q0 -106 -183 -276zM294 -101q54 58 74 96l-14 13q-14 12 -23 23t-18 32.5t-9 45.5q0 52 37 89t89 37t88.5 -37t36.5 -99q0 -106 -183 -276z" />
    <glyph glyph-name="dagger" unicode="&#x2020;" horiz-adv-x="719" 
d="M118 668q0 52 37 89t89 37t89 -37t37 -89q0 -50 -34 -86v-54h116v-150h-116v-525h-182v525h-117v150h117v52q-36 36 -36 88z" />
    <glyph glyph-name="daggerdbl" unicode="&#x2021;" horiz-adv-x="725" 
d="M121 668q0 52 37 89t89 37t89 -37t37 -89q0 -50 -34 -86v-54h116v-150h-116v-60h116v-150h-116v-315h-182v315h-117v150h117v60h-117v150h117v52q-36 36 -36 88z" />
    <glyph glyph-name="bullet" unicode="&#x2022;" horiz-adv-x="682" 
d="M67 325q0 64 47.5 111t111.5 47q65 0 112.5 -47t47.5 -111q0 -66 -47.5 -113.5t-112.5 -47.5t-112 47.5t-47 113.5z" />
    <glyph glyph-name="ellipsis" unicode="&#x2026;" horiz-adv-x="1122" 
d="M34 109q0 52 37 89t89 37t89 -37t37 -89t-37 -89t-89 -37t-89 37t-37 89zM322 109q0 52 37 89t89 37t89 -37t37 -89t-37 -89t-89 -37t-89 37t-37 89zM606 109q0 52 37 89t89 37t89 -37t37 -89t-37 -89t-89 -37t-89 37t-37 89z" />
    <glyph glyph-name="perthousand" unicode="&#x2030;" horiz-adv-x="1783" 
d="M35 576q0 91 64 155t155 64q90 0 154.5 -64t64.5 -155q0 -90 -64.5 -154t-154.5 -64q-91 0 -155 63.5t-64 154.5zM158 0l562 780h217l-562 -780h-217zM202 576q0 -22 15 -37t37 -15t37.5 15t15.5 37t-15.5 37.5t-37.5 15.5t-37 -15.5t-15 -37.5zM619 200q0 91 64 155
t155 64q90 0 154.5 -64t64.5 -155q0 -90 -64.5 -154t-154.5 -64q-91 0 -155 63.5t-64 154.5zM1082 200q0 91 64 155t155 64q90 0 154.5 -64t64.5 -155q0 -90 -64.5 -154t-154.5 -64q-91 0 -155 63.5t-64 154.5zM786 200q0 -22 15 -37t37 -15t37.5 15t15.5 37t-15.5 37.5
t-37.5 15.5t-37 -15.5t-15 -37.5zM1249 200q0 -22 15 -37t37 -15t37.5 15t15.5 37t-15.5 37.5t-37.5 15.5t-37 -15.5t-15 -37.5z" />
    <glyph glyph-name="guilsinglleft" unicode="&#x2039;" horiz-adv-x="627" 
d="M48 443l283 251v-236l-104 -92l104 -93v-235l-283 250v155z" />
    <glyph glyph-name="guilsinglright" unicode="&#x203a;" horiz-adv-x="627" 
d="M349 289l-283 -251v236l104 92l-104 93v235l283 -250v-155z" />
    <glyph glyph-name="fraction" unicode="&#x2044;" horiz-adv-x="853" 
d="M-25 0l462 780h211l-462 -780h-211z" />
    <glyph glyph-name="uni2070" unicode="&#x2070;" horiz-adv-x="721" 
d="M21 527q0 108 59 185.5t164 77.5q106 0 166 -77.5t60 -185.5q0 -109 -60 -186.5t-166 -77.5q-105 0 -164 77.5t-59 186.5zM159 527q0 -60 24 -95.5t61 -35.5q38 0 63 35.5t25 95.5q0 59 -25 94t-63 35q-37 0 -61 -35t-24 -94z" />
    <glyph glyph-name="uni2074" unicode="&#x2074;" horiz-adv-x="678" 
d="M250 273v85h-240v107l186 315h153l-172 -292h73v91h134v-91h51v-130h-51v-85h-134z" />
    <glyph glyph-name="uni2075" unicode="&#x2075;" horiz-adv-x="672" 
d="M385 640h-196l-7 -35q22 8 67 8q75 0 124 -48t49 -120q0 -79 -58.5 -130.5t-146.5 -51.5q-68 0 -121.5 31.5t-85.5 80.5l117 69q39 -46 89 -46q30 0 47.5 13t17.5 34q0 18 -12.5 32t-38.5 14q-38 0 -78 -36l-117 55l51 270h299v-140z" />
    <glyph glyph-name="uni2076" unicode="&#x2076;" horiz-adv-x="671" 
d="M265 624q69 -6 114 -50.5t45 -113.5q0 -83 -58.5 -140t-142.5 -57q-86 0 -145.5 56.5t-59.5 135.5q0 68 51 135l147 190h168zM166 494q-13 -17 -13 -33q0 -28 19.5 -45.5t49.5 -17.5q28 0 47.5 18t19.5 44q0 24 -19.5 41.5t-49.5 17.5q-31 0 -54 -25z" />
    <glyph glyph-name="uni2077" unicode="&#x2077;" horiz-adv-x="620" 
d="M21 780h363v-111l-206 -396h-157l203 369h-203v138z" />
    <glyph glyph-name="uni2078" unicode="&#x2078;" horiz-adv-x="691" 
d="M20 424q0 78 66 118q-45 34 -45 96q0 68 56 110t134 42t134 -42t56 -110q0 -62 -47 -96q67 -41 67 -118q0 -70 -61.5 -115.5t-148.5 -45.5q-88 0 -149.5 45t-61.5 116zM177 633q0 -17 14.5 -30t39.5 -13t38.5 13t13.5 30q0 16 -14 28.5t-38 12.5q-25 0 -39.5 -12.5
t-14.5 -28.5zM161 436q0 -20 19 -35.5t51 -15.5t50.5 15.5t18.5 35.5t-18.5 36t-50.5 16t-51 -15.5t-19 -36.5z" />
    <glyph glyph-name="uni2079" unicode="&#x2079;" horiz-adv-x="670" 
d="M176 429q-69 6 -114 50.5t-45 113.5q0 83 58.5 140t142.5 57q86 0 145.5 -56.5t59.5 -135.5q0 -68 -51 -135l-147 -190h-168zM275 559q13 17 13 33q0 28 -19.5 45.5t-49.5 17.5q-28 0 -47.5 -18t-19.5 -44q0 -24 19.5 -41.5t49.5 -17.5q31 0 54 25z" />
    <glyph glyph-name="Euro" unicode="&#x20ac;" horiz-adv-x="1140" 
d="M873 209q-52 -101 -151.5 -162.5t-218.5 -61.5q-127 0 -232 70.5t-152 183.5h-77v130h48q-1 7 -1 21v13h-47v130h74q46 116 152 189t235 73q119 0 217.5 -61t151.5 -161l-182 -82q-27 50 -77 80.5t-110 30.5q-93 0 -157 -69h222v-130h-277v-3.5v-3v-3.5v-3q0 -14 1 -21
h234v-130h-172q61 -61 149 -61q61 0 110.5 30t76.5 81z" />
    <glyph glyph-name="trademark" unicode="&#x2122;" horiz-adv-x="1099" 
d="M41 780h324v-138h-92v-194h-140v194h-92v138zM668 448v116l-46 -81h-45l-45 80v-115h-140v332h145l62 -113l64 113h144v-332h-139z" />
    <glyph glyph-name="minus" unicode="&#x2212;" horiz-adv-x="809" 
d="M522 275h-465v181h465v-181z" />
    <glyph glyph-name="ampersand.alt" unicode="&#xe001;" horiz-adv-x="1184" 
d="M358 440q0 -21 -15.5 -32.5t-40.5 -11.5q-48 0 -96 54q-38 -8 -64 -44.5t-26 -89.5q0 -88 74.5 -151t210.5 -63q132 0 219.5 60t87.5 157q0 86 -62 148q-85 -7 -130.5 -26t-47.5 -67q-1 -31 15.5 -46t34.5 -14q-22 16 -20 46q1 27 17.5 42t40.5 15q25 0 42.5 -17
t17.5 -45q0 -34 -25 -56t-63 -22q-46 0 -81 33t-35 94q0 58 36 95t89.5 50t116 23.5t116 17t89.5 28t36 58.5q0 35 -28 53.5t-60 18.5q-29 0 -32 -13q32 -19 32 -54q0 -26 -17.5 -43t-43.5 -17q-28 0 -44.5 19t-16.5 43q0 35 31 67.5t85 32.5q57 0 97 -39t40 -108
q0 -46 -19 -78t-57 -49.5t-78 -25.5t-97 -12q76 -71 76 -190q0 -96 -54 -167.5t-134.5 -105.5t-171.5 -34q-152 0 -258 91.5t-106 225.5q0 78 37 128.5t96 72.5q-35 49 -35 116q0 84 57 134.5t134 50.5q71 0 120 -41t49 -100q0 -38 -21 -60.5t-53 -22.5q-29 0 -46 18t-17 41
q0 32 27 48t59 -5q3 5 3 11q0 21 -28 41.5t-66 20.5q-56 0 -96.5 -43.5t-40.5 -111.5q0 -43 19 -84h18q40 0 71.5 -16.5t31.5 -48.5z" />
    <glyph glyph-name="uniE909" unicode="&#xe909;" horiz-adv-x="760" 
d="M56 680h80l19 100h126l-19 -100h61l18 100h127l-19 -100h58v-122h-80l-12 -64h57v-122h-79l-18 -99h-126l18 99h-61l-18 -99h-127l18 99h-56v122h79l12 64h-58v122zM228 494h61l11 64h-60z" />
    <glyph glyph-name="uniE910" unicode="&#xe910;" horiz-adv-x="950" 
d="M19 643q0 61 42.5 104t104.5 43t104.5 -43t42.5 -104t-42.5 -104t-104.5 -43t-104.5 43t-42.5 104zM94 273l382 507h152l-381 -507h-153zM137 643q0 -13 8 -21t21 -8q12 0 20 8t8 21q0 12 -8 20t-20 8q-13 0 -21 -8t-8 -20zM406 406q0 62 42.5 104.5t103.5 42.5
q62 0 105 -43t43 -104t-43 -104t-105 -43q-61 0 -103.5 42.5t-42.5 104.5zM523 406q0 -13 8.5 -21t20.5 -8q13 0 21 8t8 21q0 12 -8 20t-21 8q-12 0 -20.5 -8t-8.5 -20z" />
    <glyph glyph-name="uniE911" unicode="&#xe911;" horiz-adv-x="642" 
d="M29 371q58 23 61 70h-59v117h31q-11 30 -11 66q0 78 49.5 122t122.5 44q68 0 117 -40t49 -117v-11h-134v4q0 36 -35 36q-34 0 -34 -34q0 -12 20 -70h111v-117h-94q-1 -10 -5 -30h163v-138h-352v98z" />
    <glyph glyph-name="uniE912" unicode="&#xe912;" horiz-adv-x="813" 
d="M562 411q-33 -67 -98 -107.5t-143 -40.5q-81 0 -148.5 45t-99.5 117h-50v91h29v16h-29v89h47q30 75 98.5 122t152.5 47q77 0 142 -40t99 -106l-126 -57q-16 34 -47 52t-68 18q-51 0 -90 -36h136v-89h-176v-16h149v-91h-101q37 -29 82 -29q82 0 115 69z" />
    <glyph glyph-name="fraction.alt" unicode="&#xe999;" horiz-adv-x="793" 
d="M-25 0l462 780h151l-462 -780h-151z" />
    <glyph glyph-name="uniF6C3" unicode="&#xf6c3;" horiz-adv-x="0" 
d="M-429 -260l17 21.5l16.5 22t9.5 12.5q0 1 -6 6t-11 11.5l-11.5 15.5t-10 21.5t-3.5 26.5q0 36 26.5 62.5t63.5 26.5t62.5 -26t25.5 -70q0 -68 -122 -185z" />
    <glyph glyph-name="uniF6E0" unicode="&#xf6e0;" horiz-adv-x="623" 
d="M373 410q-31 -60 -98 -86v-67h-133v67q-53 20 -85.5 65t-32.5 101t33 101t85 65v67h133v-67q65 -25 98 -86l-125 -56q-13 16 -34 16q-17 0 -29 -12t-12 -29q0 -16 12 -27.5t29 -11.5q22 0 35 15z" />
    <glyph glyph-name="uniF6E4" unicode="&#xf6e4;" horiz-adv-x="632" 
d="M158 459v-1q0 -14 11 -25.5t36 -11.5q26 0 26 13q0 7 -8 11.5t-40 16.5q-29 11 -51.5 22t-49.5 29t-42 43.5t-15 55.5q0 44 29.5 76t79.5 45v63h131v-65q50 -15 79.5 -49.5t29.5 -83.5v-4h-135v1q0 12 -10.5 24t-31.5 12q-24 0 -24 -13q0 -6 8 -10.5t40 -16.5
q2 -1 27 -9.5t36 -13t33 -17.5t32.5 -25.5t20 -33t9.5 -44.5q0 -49 -31 -83t-83 -46v-62h-131v64q-51 15 -81 49.5t-30 83.5v5h135z" />
    <glyph glyph-name="uniF8FF" unicode="&#xf8ff;" horiz-adv-x="974" 
d="M681 367q-9 -4 -10 -11t7 -12l28 -20q8 -5 7.5 -10.5t-10.5 -7.5l-34 -6q-10 -1 -12 -8t5 -14l24 -24q6 -7 4 -12t-12 -5l-35 2q-10 0 -13 -6t3 -14l18 -30q5 -8 2 -12.5t-13 -2.5l-34 9q-9 3 -13.5 -2.5t-1.5 -14.5l11 -33q4 -9 0 -12.5t-13 0.5l-31 15q-8 5 -14 0.5
t-5 -14.5l5 -33q1 -10 -3 -12.5t-12 3.5l-28 21q-8 6 -14 3t-7 -13l-2 -34q-1 -10 -6 -11.5t-11 5.5l-23 27q-16 16 -22 -5l-10 -33q-2 -10 -8 -10t-10 8l-17 30q-10 20 -23 0l-15 -30q-4 -8 -10 -8t-8 10l-10 33q-6 21 -22 5l-23 -27q-14 -15 -17 6l-2 34q-1 10 -7.5 13
t-14.5 -3l-26 -21q-8 -6 -13 -3.5t-3 12.5l5 33q1 10 -5 14.5t-15 -0.5l-30 -15q-9 -4 -13 -0.5t0 12.5l11 33q4 9 -1 14.5t-14 2.5l-34 -9q-10 -2 -13 2.5t2 12.5l19 30q5 8 2 14t-13 6l-35 -2q-10 0 -12 5t4 12l25 24q6 7 4 14t-12 8l-33 6q-7 1 -10 4t-1 7t7 7l28 20l6 6
q9 8 18 -6l16 -31q5 -9 10 -8t8 10l9 34q2 6 5.5 8.5t8 1.5t8.5 -6l23 -26q7 -7 11.5 -5.5t5.5 11.5l2 34q2 10 7.5 12.5t13.5 -3.5l28 -21q8 -6 12.5 -3.5t2.5 12.5l-4 34q-1 10 4.5 14t13.5 -1l31 -14q9 -4 13 -0.5t1 12.5l-11 33q-4 9 0.5 14t13.5 2l7 -1
q20 -38 34.5 -99t14.5 -106q-14 -18 -46 -18h-4q0 22 -16 35q9 -10 9 -27v-7q-16 1 -16 19q0 21 -13.5 35t-37.5 14q-20 0 -33.5 -15.5t-13.5 -38.5q0 -29 24.5 -47t67.5 -18q68 0 134.5 53t105 127t38.5 139q0 29 -18 48t-46 19q-23 0 -41.5 -16.5t-18.5 -41.5
q0 -52 58 -58q-15 -60 -29 -85q-13 102 -58 150q44 -58 52 -161l-14 -20q0 76 -25 140t-64 84q-6 11 12 15l34 6q6 1 8.5 3.5t1 6.5t-6.5 7l-29 19q-17 15 3 23l31 14q7 2 9.5 5.5t0 7t-9.5 5.5l-31 13q-11 5 -10 14q6 3 7 8l17 30q5 9 10.5 8.5t7.5 -9.5l10 -33
q7 -23 22 -5l23 26q6 8 11 6.5t6 -11.5l2 -35q1 -10 7.5 -12.5t13.5 3.5l28 21q7 6 11.5 3t3.5 -13l-5 -34q-1 -10 5 -14t14 1l31 16q9 4 13 0t0 -14l-11 -31q-3 -10 1.5 -15t13.5 -2l34 7q10 3 13 -1t-2 -13l-18 -29q-6 -8 -3 -14.5t13 -5.5l35 2q10 0 12 -5t-4 -12
l-24 -26q-7 -7 -5 -13.5t12 -7.5l34 -6q20 -5 3 -19l-28 -19q-8 -5 -7.5 -11.5t10.5 -10.5l31 -13q9 -4 9 -9t-9 -9zM300 164q69 0 135 52.5t104.5 127t38.5 139.5q0 31 -20 49q12 -18 12 -41q0 -103 -85 -210q-92 -113 -196 -113q-29 0 -49 9q20 -13 60 -13z" />
    <glyph glyph-name="yensuperior" horiz-adv-x="816" 
d="M481 349h-116v-76h-143v76h-116v105h116v5l-12 19h-104v105h36l-127 197h168l111 -175l111 175h167l-127 -197h36v-105h-103l-13 -20v-4h116v-105z" />
    <glyph glyph-name="uni03060301" horiz-adv-x="0" 
d="M-18 815l-31 7l100 311l41 -19zM-421 901q14 -33 45 -46.5t99 -13.5q73 0 101 13t43 47h40q-24 -50 -68.5 -70.5t-115.5 -20.5q-72 0 -116 20.5t-67 70.5h39z" />
    <glyph glyph-name="uni03060300" horiz-adv-x="0" 
d="M162 924l-314 54l4 45l320 -69zM-421 901q14 -33 45 -46.5t99 -13.5q73 0 101 13t43 47h40q-24 -50 -68.5 -70.5t-115.5 -20.5q-72 0 -116 20.5t-67 70.5h39z" />
    <glyph glyph-name="uni03060309" horiz-adv-x="0" 
d="M-16 1031q70 -20 63 -75q-3 -30 -37 -67q-25 -32 -28 -56q-5 -38 25 -59l-3 -24q-70 20 -63 75q3 31 37 67q25 29 28 56q5 40 -25 59zM-421 901q14 -33 45 -46.5t99 -13.5q73 0 101 13t43 47h40q-24 -50 -68.5 -70.5t-115.5 -20.5q-72 0 -116 20.5t-67 70.5h39z" />
    <glyph glyph-name="uni03060303" horiz-adv-x="0" 
d="M-229 963q19 72 93 72q41 0 93 -29q42 -22 76 -22q52 0 76 32h32q-19 -72 -93 -72q-42 0 -93 29q-41 22 -76 22q-53 0 -76 -32h-32zM-421 901q14 -33 45 -46.5t99 -13.5q73 0 101 13t43 47h40q-24 -50 -68.5 -70.5t-115.5 -20.5q-72 0 -116 20.5t-67 70.5h39z" />
    <glyph glyph-name="uni03020301" horiz-adv-x="0" 
d="M64 837l-31 4l73 319l42 -15zM-52 825l-161 53l-163 -53l-15 17l178 79l177 -79z" />
    <glyph glyph-name="uni03020300" horiz-adv-x="0" 
d="M149 906l-314 54l4 45l320 -69zM-52 825l-161 53l-163 -53l-15 17l178 79l177 -79z" />
    <glyph glyph-name="uni03020309" horiz-adv-x="0" 
d="M73 1074q70 -20 63 -75q-3 -30 -37 -67q-25 -32 -28 -56q-5 -38 25 -59l-3 -24q-70 20 -63 75q3 31 37 67q25 29 28 56q5 40 -25 59zM-52 825l-161 53l-163 -53l-15 17l178 79l177 -79z" />
    <glyph glyph-name="uni03020303" horiz-adv-x="0" 
d="M-74 927q20 72 93 72q41 0 93 -29q42 -22 76 -22q52 0 76 32h32q-20 -72 -93 -72q-42 0 -93 29q-41 22 -76 22q-53 0 -76 -32h-32zM-52 825l-161 53l-163 -53l-15 17l178 79l177 -79z" />
    </font>
</defs>
</svg>
